<svg width="771" height="677" viewBox="0 0 771 677" fill="none" xmlns="http://www.w3.org/2000/svg">
<path d="M771 138H50V677H771V138Z" fill="white"/>
<path d="M0 676.78H52.74L52.74 52H0L0 676.78Z" fill="#272727"/>
<path d="M770.77 58.4399H240.76V175.93H770.77V58.4399Z" fill="#96E7F9"/>
<path d="M770.77 64.4399V58.4399L240.76 58.4399V64.4399L770.77 64.4399Z" fill="#E5D8FB"/>
<path d="M770.76 93.1201V87.1201L240.75 87.1201V93.1201L770.76 93.1201Z" fill="#E5D8FB"/>
<path d="M770.76 122.04V116.04L240.75 116.04V122.04L770.76 122.04Z" fill="#E5D8FB"/>
<path d="M770.77 153.41V147.41L240.76 147.41V153.41L770.77 153.41Z" fill="#E5D8FB"/>
<path d="M153.6 58.3899H142.6V207.85H153.6V58.3899Z" fill="#272727"/>
<path d="M240.76 58.3899H234.76V207.85H240.76V58.3899Z" fill="#272727"/>
<path d="M234.76 58.3899H153.6V198.95H234.76V58.3899Z" fill="white"/>
<path d="M228.47 63.5801H159.98V92.97H228.47V63.5801Z" fill="#E5D8FB"/>
<path d="M234.76 92.98H153.6V207.86H234.76V92.98Z" fill="#96E7F9"/>
<path d="M160 98.78V133.78H228.49V98.78H160ZM171.09 124.56H165.09V103.56H171.09V124.56ZM182.94 128.67H176.94V103.6H182.94V128.67ZM194.82 128.67H188.82V103.6H194.82V128.67ZM211.5 124.56H199.6V103.56H211.5V124.56ZM223.27 123.85H217.27V102.85H223.27V123.85Z" fill="#272727"/>
<path d="M160.25 138.38V168.85H228.74V138.38H160.25ZM176.83 159.48H165.64V144.48H176.83V159.48ZM188.92 164.27H182.92V144.52H188.92V164.27ZM206.26 159.48H195.07V144.48H206.26V159.48ZM222.94 159.48H211.75V144.48H222.94V159.48Z" fill="#272727"/>
<path d="M234.76 204.86V198.86H153.57V204.86H234.76Z" fill="#272727"/>
<path d="M234.76 213.86V207.86H153.57V213.86H234.76Z" fill="#272727"/>
<path d="M234.77 58.4001V52.4001L153.58 52.4001V58.4001L234.77 58.4001Z" fill="#272727"/>
<path d="M169.49 104.61H165.07V124.46H169.49V104.61Z" fill="white"/>
<path d="M182.92 107.83H178.5V127.68H182.92V107.83Z" fill="white"/>
<path d="M194.8 108.23H190.38V128.08H194.8V108.23Z" fill="white"/>
<path d="M211.48 104.61H203.66V124.46H211.48V104.61Z" fill="white"/>
<path d="M222.17 106.21H217.25V123.86H222.17V106.21Z" fill="white"/>
<path d="M234.64 178.06H153.45V198.65H234.64V178.06Z" fill="#E5D8FB"/>
<path d="M199.68 178.28H188.68V207.86H199.68V178.28Z" fill="#272727"/>
<path d="M228.74 178.93V172.93H159.34V178.93H228.74Z" fill="#272727"/>
<path d="M174.64 144.97H165.64V159.02H174.64V144.97Z" fill="white"/>
<path d="M187.34 146.8H182.92V164.27H187.34V146.8Z" fill="white"/>
<path d="M206.26 145.43H198.05V159.48H206.26V145.43Z" fill="white"/>
<path d="M222.97 146.43H214.23V158.92H222.97V146.43Z" fill="white"/>
<path d="M61.4399 58.3899H50.4399V207.85H61.4399V58.3899Z" fill="#272727"/>
<path d="M148.6 58.3899H142.6V207.85H148.6V58.3899Z" fill="#272727"/>
<path d="M142.6 58.3899H61.4399V198.95H142.6V58.3899Z" fill="white"/>
<path d="M136.31 63.5801H67.8198V92.97H136.31V63.5801Z" fill="#E5D8FB"/>
<path d="M142.6 92.98H61.4399V207.86H142.6V92.98Z" fill="#96E7F9"/>
<path d="M67.8198 98.78V133.78H136.31V98.78H67.8198ZM78.9099 124.56H72.9099V103.56H78.9099V124.56ZM90.7599 128.67H84.7599V103.6H90.7599V128.67ZM102.64 128.67H96.6399V103.6H102.64V128.67ZM119.33 124.56H107.43V103.56H119.33V124.56ZM131.09 123.85H125.09V102.85H131.09V123.85Z" fill="#272727"/>
<path d="M68.0898 138.38V168.85H136.58V138.38H68.0898ZM84.6699 159.48H73.4799V144.48H84.6699V159.48ZM96.7599 164.27H90.7599V144.52H96.7599V164.27ZM114.1 159.48H102.91V144.48H114.1V159.48ZM130.79 159.48H119.6V144.48H130.79V159.48Z" fill="#272727"/>
<path d="M142.6 204.86V198.86H61.4102V204.86H142.6Z" fill="#272727"/>
<path d="M142.6 213.86V207.86H61.4102V213.86H142.6Z" fill="#272727"/>
<path d="M142.61 58.3901V52.3901L61.4199 52.3901V58.3901L142.61 58.3901Z" fill="#272727"/>
<path d="M77.3301 104.61H72.9102V124.46H77.3301V104.61Z" fill="white"/>
<path d="M90.7599 107.83H86.3398V127.68H90.7599V107.83Z" fill="white"/>
<path d="M102.64 108.23H98.22V128.08H102.64V108.23Z" fill="white"/>
<path d="M119.33 104.61H111.51V124.46H119.33V104.61Z" fill="white"/>
<path d="M130.01 106.21H125.09V123.86H130.01V106.21Z" fill="white"/>
<path d="M142.48 178.06H61.29V198.65H142.48V178.06Z" fill="#E5D8FB"/>
<path d="M107.52 178.28H96.52V207.86H107.52V178.28Z" fill="#272727"/>
<path d="M136.58 178.93V172.93H67.1802V178.93H136.58Z" fill="#272727"/>
<path d="M82.48 144.97H73.48V159.02H82.48V144.97Z" fill="white"/>
<path d="M95.1801 146.8H90.76V164.27H95.1801V146.8Z" fill="white"/>
<path d="M114.1 145.43H105.89V159.48H114.1V145.43Z" fill="white"/>
<path d="M130.81 146.43H122.07V158.92H130.81V146.43Z" fill="white"/>
<path d="M425.64 173.07H338.37V222.49H425.64V173.07Z" fill="#96E7F9"/>
<path d="M338.37 163.02H332.37V222.48H338.37V163.02Z" fill="#272727"/>
<path d="M419.64 228.49V222.49H338.37V228.49H419.64Z" fill="#272727"/>
<path d="M425.64 163.02H419.64V222.48H425.64V163.02Z" fill="#272727"/>
<path d="M419.64 163.03V157.03H338.37V163.03H419.64Z" fill="#272727"/>
<path d="M344.37 157.02V151.02H338.37V157.02H344.37Z" fill="#272727"/>
<path d="M419.64 157.02V151.02H413.64V157.02H419.64Z" fill="#272727"/>
<path d="M413.64 151.03V145.03H344.37V151.03H413.64Z" fill="#272727"/>
<path d="M413.06 184.3V178.3H344.37V184.3H413.06Z" fill="#272727"/>
<path d="M413.06 217.3V211.3H344.37V217.3H413.06Z" fill="#272727"/>
<path d="M350.37 211.3V184.23H344.37V211.3H350.37Z" fill="#272727"/>
<path d="M413.06 211.37V184.3H407.06V211.37H413.06Z" fill="#272727"/>
<path d="M361.22 222.99V216.99H355.22V222.99H361.22Z" fill="#272727"/>
<path d="M401.68 223.23V217.23H395.68V223.23H401.68Z" fill="#272727"/>
<path d="M407.06 184.22H350.37V211.35H407.06V184.22Z" fill="#96E7F9"/>
<path d="M370.49 184.19H350.37V196.19H370.49V184.19Z" fill="#E5D8FB"/>
<path d="M365.86 186.94H355.01V193.45H365.86V186.94Z" fill="white"/>
<path d="M419.64 163.02H344.32V173.06H419.64V163.02Z" fill="#E5D8FB"/>
<path d="M413.64 151.02H346.62V157.02H413.64V151.02Z" fill="#E5D8FB"/>
<path d="M403.86 83.48H362.55V125.73H403.86V83.48Z" fill="white"/>
<path d="M416.14 127.22V82H405.03V127.22H416.14Z" fill="#E5D8FB"/>
<path d="M362.56 126.9V81.6799H344.01V126.9H362.56Z" fill="#E5D8FB"/>
<path d="M345.35 77.48H339.35V131.73H345.35V77.48Z" fill="#272727"/>
<path d="M420.92 77.48H414.92V131.73H420.92V77.48Z" fill="#272727"/>
<path d="M356.06 77.97H350.06V130.62H356.06V77.97Z" fill="#272727"/>
<path d="M409.86 77.97H403.86V130.62H409.86V77.97Z" fill="#272727"/>
<path d="M418.58 122.05V116.05H344.82V122.05H418.58Z" fill="#272727"/>
<path d="M415.21 131.73V125.73H339.83V131.73H415.21Z" fill="#272727"/>
<path d="M415.61 112.4V106.4H341.85V112.4H415.61Z" fill="#272727"/>
<path d="M415.21 102.76V96.76H341.45V102.76H415.21Z" fill="#272727"/>
<path d="M415.21 93.1201V87.1201H340.94V93.1201H415.21Z" fill="#272727"/>
<path d="M415.61 83.48V77.48H341.85V83.48H415.61Z" fill="#272727"/>
<path d="M646.43 83.48H605.12V125.73H646.43V83.48Z" fill="white"/>
<path d="M658.7 127.21V81.99H647.59V127.21H658.7Z" fill="#E5D8FB"/>
<path d="M605.12 126.9V81.6799H586.57V126.9H605.12Z" fill="#E5D8FB"/>
<path d="M587.91 77.48H581.91V131.73H587.91V77.48Z" fill="#272727"/>
<path d="M663.48 77.48H657.48V131.73H663.48V77.48Z" fill="#272727"/>
<path d="M598.63 77.97H592.63V130.62H598.63V77.97Z" fill="#272727"/>
<path d="M652.42 77.97H646.42V130.62H652.42V77.97Z" fill="#272727"/>
<path d="M661.14 122.05V116.05H587.38V122.05H661.14Z" fill="#272727"/>
<path d="M657.77 131.73V125.73H582.39V131.73H657.77Z" fill="#272727"/>
<path d="M658.18 112.4V106.4H584.42V112.4H658.18Z" fill="#272727"/>
<path d="M657.77 102.76V96.76H584.01V102.76H657.77Z" fill="#272727"/>
<path d="M657.77 93.1199V87.1199H583.5V93.1199H657.77Z" fill="#272727"/>
<path d="M658.18 83.48V77.48H584.42V83.48H658.18Z" fill="#272727"/>
<path d="M243.36 373.44H237.36V423.36H243.36V373.44Z" fill="#272727"/>
<path d="M307.41 373.44H301.41V423.36H307.41V373.44Z" fill="#272727"/>
<path d="M301.41 373.45V367.45H243.37V373.45H301.41Z" fill="#272727"/>
<path d="M295.48 409.31V403.31H250.03V409.31H295.48Z" fill="#272727"/>
<path d="M256.04 423.36V417.36H243.37V423.36H256.04Z" fill="#272727"/>
<path d="M301.47 423.37V417.37H289.5V423.37H301.47Z" fill="#272727"/>
<path d="M295.5 406.59H289.5V418.56H295.5V406.59Z" fill="#272727"/>
<path d="M256.04 407.85H250.04V419.82H256.04V407.85Z" fill="#272727"/>
<path d="M301.4 373.44H243.36V398.4H301.4V373.44Z" fill="white"/>
<path d="M283.44 378.1H261.33V388.48H283.44V378.1Z" fill="#E5D8FB"/>
<path d="M301.4 398.4H243.36V403.3H301.4V398.4Z" fill="#E5D8FB"/>
<path d="M243.37 403.01V417.37H250.04V403.01H243.37Z" fill="#E5D8FB"/>
<path d="M295.5 401.15V417.36H301.41V401.15H295.5Z" fill="#E5D8FB"/>
<path d="M523.9 371.35H517.9V421.27H523.9V371.35Z" fill="#272727"/>
<path d="M587.94 371.35H581.94V421.27H587.94V371.35Z" fill="#272727"/>
<path d="M581.94 371.36V365.36H523.9V371.36H581.94Z" fill="#272727"/>
<path d="M576.01 407.22V401.22H530.56V407.22H576.01Z" fill="#272727"/>
<path d="M536.57 421.27V415.27H523.9V421.27H536.57Z" fill="#272727"/>
<path d="M582 421.28V415.28H570.03V421.28H582Z" fill="#272727"/>
<path d="M576.03 404.5H570.03V416.47H576.03V404.5Z" fill="#272727"/>
<path d="M536.57 405.76H530.57V417.73H536.57V405.76Z" fill="#272727"/>
<path d="M581.94 371.35H523.9V396.31H581.94V371.35Z" fill="white"/>
<path d="M563.97 376.01H541.86V386.39H563.97V376.01Z" fill="#E5D8FB"/>
<path d="M581.94 396.31H523.9V401.21H581.94V396.31Z" fill="#E5D8FB"/>
<path d="M523.9 400.92V415.28H530.57V400.92H523.9Z" fill="#E5D8FB"/>
<path d="M576.03 399.07V415.28H581.94V399.07H576.03Z" fill="#E5D8FB"/>
<path d="M0 0L0 52L771 52V0L0 0Z" fill="#272727"/>
<path d="M346.82 495.46H329.57V506.63H346.82V495.46Z" fill="#E5D8FB"/>
<path d="M491.59 495.46H474.34V506.63H491.59V495.46Z" fill="#E5D8FB"/>
<path d="M496.88 479.41H324.15V495.45H496.88V479.41Z" fill="#96E7F9"/>
<path d="M324.15 358.35H318.15V482.48H324.15V358.35Z" fill="#272727"/>
<path d="M503.01 358.35H497.01V482.48H503.01V358.35Z" fill="#272727"/>
<path d="M497 479.41V473.41H324.15V479.41H497Z" fill="#272727"/>
<path d="M497.01 488.48V482.48H324.16V488.48H497.01Z" fill="#272727"/>
<path d="M474.34 499.41V493.41H351.49V499.41H474.34Z" fill="#272727"/>
<path d="M324.16 508.44H330.16V482.48H324.16V508.44Z" fill="#272727"/>
<path d="M346.82 508.44H352.82V482.48H346.82V508.44Z" fill="#272727"/>
<path d="M324.41 502.44V508.44H350.37V502.44H324.41Z" fill="#272727"/>
<path d="M468.34 508.44H474.34V482.48H468.34V508.44Z" fill="#272727"/>
<path d="M491.01 508.44H497.01V482.48H491.01V508.44Z" fill="#272727"/>
<path d="M468.59 502.43V508.43H494.55V502.43H468.59Z" fill="#272727"/>
<path d="M497.01 358.35V352.35H324.16V358.35H497.01Z" fill="#272727"/>
<path d="M497.01 358.35H324.41V473.41H497.01V358.35Z" fill="white"/>
<path d="M496.88 362.75H330.15V473.41H496.88V362.75Z" fill="#E5D8FB"/>
<path d="M243.63 460.53H237.63V510.45H243.63V460.53Z" fill="#272727"/>
<path d="M307.67 460.53H301.67V510.45H307.67V460.53Z" fill="#272727"/>
<path d="M301.67 460.53V454.53H243.63V460.53H301.67Z" fill="#272727"/>
<path d="M295.75 496.39V490.39H250.3V496.39H295.75Z" fill="#272727"/>
<path d="M256.3 510.45V504.45H243.63V510.45H256.3Z" fill="#272727"/>
<path d="M301.73 510.45V504.45H289.76V510.45H301.73Z" fill="#272727"/>
<path d="M295.76 493.67H289.76V505.64H295.76V493.67Z" fill="#272727"/>
<path d="M256.3 494.94H250.3V506.91H256.3V494.94Z" fill="#272727"/>
<path d="M301.67 460.53H243.63V485.49H301.67V460.53Z" fill="white"/>
<path d="M283.71 465.18H261.6V475.56H283.71V465.18Z" fill="#E5D8FB"/>
<path d="M301.67 485.49H243.63V490.39H301.67V485.49Z" fill="#E5D8FB"/>
<path d="M243.62 490.09V504.45H250.29V490.09H243.62Z" fill="#E5D8FB"/>
<path d="M295.77 488.24V504.45H301.68V488.24H295.77Z" fill="#E5D8FB"/>
<path d="M524.16 458.44H518.16V508.36H524.16V458.44Z" fill="#272727"/>
<path d="M588.2 458.44H582.2V508.36H588.2V458.44Z" fill="#272727"/>
<path d="M582.2 458.44V452.44H524.16V458.44H582.2Z" fill="#272727"/>
<path d="M576.28 494.31V488.31H530.83V494.31H576.28Z" fill="#272727"/>
<path d="M536.83 508.36V502.36H524.16V508.36H536.83Z" fill="#272727"/>
<path d="M582.26 508.36V502.36H570.29V508.36H582.26Z" fill="#272727"/>
<path d="M576.3 491.58H570.3V503.55H576.3V491.58Z" fill="#272727"/>
<path d="M536.83 492.85H530.83V504.82H536.83V492.85Z" fill="#272727"/>
<path d="M582.2 458.44H524.16V483.4H582.2V458.44Z" fill="white"/>
<path d="M564.24 463.09H542.13V473.47H564.24V463.09Z" fill="#E5D8FB"/>
<path d="M582.2 483.4H524.16V488.3H582.2V483.4Z" fill="#E5D8FB"/>
<path d="M524.16 488V502.36H530.83V488H524.16Z" fill="#E5D8FB"/>
<path d="M576.3 486.15V502.36H582.21V486.15H576.3Z" fill="#E5D8FB"/>
</svg>
