<svg id="Layer_1" data-name="Layer 1" xmlns="http://www.w3.org/2000/svg" viewBox="0 0 1343 1369"><defs><style>.cls-1{fill:#1e1647;}.cls-2{fill:#352c64;}.cls-3{fill:#3e3570;}.cls-4{fill:#3d346e;}.cls-5{fill:#473d79;}.cls-6{fill:#30275e;}.cls-7{fill:#5744bc;}.cls-8{fill:#3b3075;}.cls-9{fill:none;stroke:#050015;stroke-miterlimit:10;stroke-width:17px;}.cls-10{fill:#2e3346;}</style></defs><rect class="cls-1" width="1343" height="1369"/><path class="cls-2" d="M536.17,360.67c-85.28,0-155.94,48-168.56,110.69H704.72C692.1,408.67,621.44,360.67,536.17,360.67Z"/><path class="cls-3" d="M626.82,336H616.28a72.58,72.58,0,0,0-51.79,21.73l-112,114.07H790.61l-112-114.07A72.57,72.57,0,0,0,626.82,336Z"/><path class="cls-4" d="M808,352.36H799.1a60.92,60.92,0,0,0-43.49,18.24l-94,95.76H945.45l-94-95.76A60.87,60.87,0,0,0,808,352.36Z"/><path class="cls-5" d="M985.4,386.61h-6.58a45.33,45.33,0,0,0-32.32,13.56l-69.89,71.19h211l-69.89-71.19A45.29,45.29,0,0,0,985.4,386.61Z"/><path class="cls-6" d="M1077.81,1151.13h0a24.49,24.49,0,0,1,24.5-24.5h64.82a43.68,43.68,0,0,0,43.68-43.68h0V920.31a43.68,43.68,0,0,0-43.68-43.68H999.81a34,34,0,0,1-34-34h0a34,34,0,0,1,34-34h28.55a19.45,19.45,0,0,0,19.45-19.45v-50.1a19.45,19.45,0,0,0-19.45-19.45h-25.55a37,37,0,0,1-37-37h0a37,37,0,0,1,37-37h70a30,30,0,0,0,30-30v-120h0a30,30,0,0,0-30-30h-793a15,15,0,0,0-15,15h0a15,15,0,0,0,15,15h175.5a25.5,25.5,0,0,1,25.5,25.5h0a25.5,25.5,0,0,1-25.5,25.5H401a25.2,25.2,0,0,0-25.2,25.2h0a61.8,61.8,0,0,1-61.8,61.8h-31.2a30,30,0,0,0-30,30h0a30,30,0,0,0,30,30h72a21,21,0,0,1,21,21h0a21,21,0,0,0,21,21h98a24,24,0,0,1,24,24h0a24,24,0,0,1-24,24H380.31a27.5,27.5,0,0,0-27.5,27.5h0a27.5,27.5,0,0,1-27.5,27.5H227.47a39.65,39.65,0,0,0-39.66,39.66V1013a39.66,39.66,0,0,0,39.66,39.66H341.81a11,11,0,0,1,11,11h0v52a11,11,0,0,0,11,11h308a22,22,0,0,1,22,22h0v5a22,22,0,0,0,22,22h337.5a24.5,24.5,0,0,0,24.5-24.5Z"/><rect class="cls-1" x="404.55" y="471.1" width="8.75" height="13.12"/><polygon class="cls-1" points="428.61 471.1 408.93 471.1 408.93 412.05 417.67 442.67 428.61 471.1"/><polygon class="cls-7" points="389.24 471.1 408.93 471.1 408.93 412.05 400.18 442.67 389.24 471.1"/><rect class="cls-8" x="397.99" y="433.92" width="21.87" height="8.75"/><polygon class="cls-1" points="428.61 438.3 408.93 438.3 408.93 379.25 417.67 409.87 428.61 438.3"/><polygon class="cls-7" points="389.24 438.3 408.93 438.3 408.93 379.25 400.18 409.87 389.24 438.3"/><rect class="cls-1" x="336.44" y="473.77" width="6.97" height="10.46"/><polygon class="cls-1" points="355.61 473.77 339.93 473.77 339.93 426.72 346.9 451.11 355.61 473.77"/><polygon class="cls-7" points="324.24 473.77 339.93 473.77 339.93 426.72 332.96 451.11 324.24 473.77"/><rect class="cls-8" x="331.21" y="444.15" width="17.43" height="6.97"/><polygon class="cls-1" points="355.61 447.63 339.93 447.63 339.93 400.58 346.9 424.98 355.61 447.63"/><polygon class="cls-7" points="324.24 447.63 339.93 447.63 339.93 400.58 332.96 424.98 324.24 447.63"/><rect class="cls-1" x="454.22" y="480.24" width="7.99" height="11.98"/><polygon class="cls-1" points="476.19 480.24 458.22 480.24 458.22 426.32 466.21 454.28 476.19 480.24"/><polygon class="cls-7" points="440.24 480.24 458.22 480.24 458.22 426.32 450.23 454.28 440.24 480.24"/><rect class="cls-8" x="448.23" y="446.29" width="19.97" height="7.99"/><polygon class="cls-1" points="476.19 450.28 458.22 450.28 458.22 396.36 466.21 424.32 476.19 450.28"/><polygon class="cls-7" points="440.24 450.28 458.22 450.28 458.22 396.36 450.23 424.32 440.24 450.28"/><circle class="cls-9" cx="489.36" cy="622.61" r="19.75"/><path class="cls-9" d="M512.61,620.36h81a18,18,0,0,0,18-18h0a18,18,0,0,1,18-18h19a18,18,0,0,0,18-18v-64.5"/><rect class="cls-1" x="979.7" y="497.12" width="5.41" height="8.11"/><polygon class="cls-1" points="994.57 497.11 982.41 497.11 982.41 460.63 987.81 479.55 994.57 497.11"/><polygon class="cls-7" points="970.24 497.11 982.41 497.11 982.41 460.63 977 479.55 970.24 497.11"/><rect class="cls-8" x="975.65" y="474.14" width="13.51" height="5.41"/><polygon class="cls-1" points="994.57 476.85 982.41 476.85 982.41 440.36 987.81 459.28 994.57 476.85"/><polygon class="cls-7" points="970.24 476.85 982.41 476.85 982.41 440.36 977 459.28 970.24 476.85"/><rect class="cls-1" x="1044.94" y="486.77" width="4.97" height="7.46"/><polygon class="cls-1" points="1058.61 486.77 1047.43 486.77 1047.43 453.22 1052.4 470.61 1058.61 486.77"/><polygon class="cls-7" points="1036.24 486.77 1047.43 486.77 1047.43 453.22 1042.46 470.61 1036.24 486.77"/><rect class="cls-8" x="1041.21" y="465.65" width="12.43" height="4.97"/><polygon class="cls-1" points="1058.61 468.13 1047.43 468.13 1047.43 434.58 1052.4 451.98 1058.61 468.13"/><polygon class="cls-7" points="1036.24 468.13 1047.43 468.13 1047.43 434.58 1042.46 451.98 1036.24 468.13"/><rect class="cls-1" x="1080.33" y="612.43" width="5.19" height="7.79"/><polygon class="cls-1" points="1094.61 612.44 1082.93 612.44 1082.93 577.39 1088.12 595.56 1094.61 612.44"/><polygon class="cls-7" points="1071.24 612.44 1082.93 612.44 1082.93 577.39 1077.74 595.56 1071.24 612.44"/><rect class="cls-8" x="1076.44" y="590.37" width="12.98" height="5.19"/><polygon class="cls-1" points="1094.61 592.96 1082.93 592.96 1082.93 557.92 1088.12 576.09 1094.61 592.96"/><polygon class="cls-7" points="1071.24 592.96 1082.93 592.96 1082.93 557.92 1077.74 576.09 1071.24 592.96"/><rect class="cls-1" x="1019.61" y="621.77" width="3.64" height="5.46"/><polygon class="cls-1" points="1029.61 621.77 1021.43 621.77 1021.43 597.22 1025.06 609.95 1029.61 621.77"/><polygon class="cls-7" points="1013.24 621.77 1021.43 621.77 1021.43 597.22 1017.79 609.95 1013.24 621.77"/><rect class="cls-8" x="1016.88" y="606.31" width="9.09" height="3.64"/><polygon class="cls-1" points="1029.61 608.13 1021.43 608.13 1021.43 583.58 1025.06 596.31 1029.61 608.13"/><polygon class="cls-7" points="1013.24 608.13 1021.43 608.13 1021.43 583.58 1017.79 596.31 1013.24 608.13"/><rect class="cls-1" x="1043.28" y="631.77" width="6.3" height="9.46"/><polygon class="cls-1" points="1060.61 631.77 1046.43 631.77 1046.43 589.22 1052.73 611.28 1060.61 631.77"/><polygon class="cls-7" points="1032.24 631.77 1046.43 631.77 1046.43 589.22 1040.12 611.28 1032.24 631.77"/><rect class="cls-8" x="1038.55" y="604.98" width="15.76" height="6.3"/><polygon class="cls-1" points="1060.61 608.13 1046.43 608.13 1046.43 565.58 1052.73 587.64 1060.61 608.13"/><polygon class="cls-7" points="1032.24 608.13 1046.43 608.13 1046.43 565.58 1040.12 587.64 1032.24 608.13"/><path class="cls-10" d="M899.15,471.16H901a1.5,1.5,0,0,1,1.5,1.5v14.7h-4.89v-14.7a1.5,1.5,0,0,1,1.5-1.5Z"/><rect class="cls-1" x="897.7" y="513.12" width="5.41" height="8.11"/><polygon class="cls-1" points="912.57 513.11 900.41 513.11 900.41 476.63 905.81 495.55 912.57 513.11"/><polygon class="cls-7" points="888.24 513.11 900.41 513.11 900.41 476.63 895 495.55 888.24 513.11"/><rect class="cls-8" x="893.65" y="490.14" width="13.51" height="5.41"/><polygon class="cls-1" points="912.57 492.85 900.41 492.85 900.41 456.36 905.81 475.28 912.57 492.85"/><polygon class="cls-7" points="888.24 492.85 900.41 492.85 900.41 456.36 895 475.28 888.24 492.85"/><rect class="cls-1" x="1020.33" y="774.43" width="5.19" height="7.79"/><polygon class="cls-1" points="1034.61 774.44 1022.93 774.44 1022.93 739.39 1028.12 757.56 1034.61 774.44"/><polygon class="cls-7" points="1011.24 774.44 1022.93 774.44 1022.93 739.39 1017.74 757.56 1011.24 774.44"/><rect class="cls-8" x="1016.44" y="752.37" width="12.98" height="5.19"/><polygon class="cls-1" points="1034.61 754.96 1022.93 754.96 1022.93 719.92 1028.12 738.09 1034.61 754.96"/><polygon class="cls-7" points="1011.24 754.96 1022.93 754.96 1022.93 719.92 1017.74 738.09 1011.24 754.96"/><rect class="cls-1" x="986.22" y="791.24" width="7.99" height="11.98"/><polygon class="cls-1" points="1008.19 791.24 990.22 791.24 990.22 737.32 998.21 765.28 1008.19 791.24"/><polygon class="cls-7" points="972.24 791.24 990.22 791.24 990.22 737.32 982.23 765.28 972.24 791.24"/><rect class="cls-8" x="980.23" y="757.29" width="19.97" height="7.99"/><polygon class="cls-1" points="1008.19 761.28 990.22 761.28 990.22 707.36 998.21 735.32 1008.19 761.28"/><polygon class="cls-7" points="972.24 761.28 990.22 761.28 990.22 707.36 982.23 735.32 972.24 761.28"/><rect class="cls-1" x="685.67" y="607.49" width="3.64" height="5.46"/><polygon class="cls-1" points="695.67 607.49 687.49 607.49 687.49 582.94 691.12 595.67 695.67 607.49"/><polygon class="cls-7" points="679.3 607.49 687.49 607.49 687.49 582.94 683.85 595.67 679.3 607.49"/><rect class="cls-8" x="682.94" y="592.03" width="9.09" height="3.64"/><polygon class="cls-1" points="695.67 593.85 687.49 593.85 687.49 569.3 691.12 582.03 695.67 593.85"/><polygon class="cls-7" points="679.3 593.85 687.49 593.85 687.49 569.3 683.85 582.03 679.3 593.85"/><path class="cls-9" d="M489.61,649.36v21.23a14.77,14.77,0,0,0,14.77,14.77H717.86a15.63,15.63,0,0,1,15.63,15.25l.09,3.55v47.91"/><rect class="cls-1" x="457.33" y="585.43" width="5.19" height="7.79"/><polygon class="cls-1" points="471.61 585.44 459.93 585.44 459.93 550.39 465.12 568.56 471.61 585.44"/><polygon class="cls-7" points="448.24 585.44 459.93 585.44 459.93 550.39 454.74 568.56 448.24 585.44"/><rect class="cls-8" x="453.44" y="563.37" width="12.98" height="5.19"/><polygon class="cls-1" points="471.61 565.96 459.93 565.96 459.93 530.92 465.12 549.09 471.61 565.96"/><polygon class="cls-7" points="448.24 565.96 459.93 565.96 459.93 530.92 454.74 549.09 448.24 565.96"/><rect class="cls-1" x="408.61" y="687.77" width="3.64" height="5.46"/><polygon class="cls-1" points="418.61 687.77 410.43 687.77 410.43 663.22 414.06 675.95 418.61 687.77"/><polygon class="cls-7" points="402.24 687.77 410.43 687.77 410.43 663.22 406.79 675.95 402.24 687.77"/><rect class="cls-8" x="405.88" y="672.31" width="9.09" height="3.64"/><polygon class="cls-1" points="418.61 674.13 410.43 674.13 410.43 649.58 414.06 662.31 418.61 674.13"/><polygon class="cls-7" points="402.24 674.13 410.43 674.13 410.43 649.58 406.79 662.31 402.24 674.13"/><rect class="cls-1" x="410.28" y="585.77" width="6.3" height="9.46"/><polygon class="cls-1" points="427.61 585.77 413.43 585.77 413.43 543.22 419.73 565.28 427.61 585.77"/><polygon class="cls-7" points="399.24 585.77 413.43 585.77 413.43 543.22 407.12 565.28 399.24 585.77"/><rect class="cls-8" x="405.55" y="558.98" width="15.76" height="6.3"/><polygon class="cls-1" points="427.61 562.13 413.43 562.13 413.43 519.58 419.73 541.64 427.61 562.13"/><polygon class="cls-7" points="399.24 562.13 413.43 562.13 413.43 519.58 407.12 541.64 399.24 562.13"/><rect class="cls-1" x="344.72" y="675.1" width="5.41" height="8.12"/><polygon class="cls-1" points="359.61 675.1 347.43 675.1 347.43 638.55 352.84 657.5 359.61 675.1"/><polygon class="cls-7" points="335.24 675.1 347.43 675.1 347.43 638.55 342.01 657.5 335.24 675.1"/><rect class="cls-8" x="340.66" y="652.09" width="13.54" height="5.41"/><polygon class="cls-1" points="359.61 654.8 347.43 654.8 347.43 618.25 352.84 637.2 359.61 654.8"/><polygon class="cls-7" points="335.24 654.8 347.43 654.8 347.43 618.25 342.01 637.2 335.24 654.8"/><rect class="cls-1" x="313.44" y="659.77" width="6.97" height="10.46"/><polygon class="cls-1" points="332.61 659.77 316.93 659.77 316.93 612.72 323.9 637.11 332.61 659.77"/><polygon class="cls-7" points="301.24 659.77 316.93 659.77 316.93 612.72 309.96 637.11 301.24 659.77"/><rect class="cls-8" x="308.21" y="630.15" width="17.43" height="6.97"/><polygon class="cls-1" points="332.61 633.63 316.93 633.63 316.93 586.58 323.9 610.98 332.61 633.63"/><polygon class="cls-7" points="301.24 633.63 316.93 633.63 316.93 586.58 309.96 610.98 301.24 633.63"/><rect class="cls-1" x="452.22" y="684.24" width="7.99" height="11.98"/><polygon class="cls-1" points="474.19 684.24 456.22 684.24 456.22 630.32 464.21 658.28 474.19 684.24"/><polygon class="cls-7" points="438.24 684.24 456.22 684.24 456.22 630.32 448.23 658.28 438.24 684.24"/><rect class="cls-8" x="446.23" y="650.29" width="19.97" height="7.99"/><polygon class="cls-1" points="474.19 654.28 456.22 654.28 456.22 600.36 464.21 628.32 474.19 654.28"/><polygon class="cls-7" points="438.24 654.28 456.22 654.28 456.22 600.36 448.23 628.32 438.24 654.28"/><rect class="cls-1" x="638.33" y="1044.43" width="5.19" height="7.79"/><polygon class="cls-1" points="652.61 1044.44 640.93 1044.44 640.93 1009.39 646.12 1027.56 652.61 1044.44"/><polygon class="cls-7" points="629.24 1044.44 640.93 1044.44 640.93 1009.39 635.74 1027.56 629.24 1044.44"/><rect class="cls-8" x="634.44" y="1022.37" width="12.98" height="5.19"/><polygon class="cls-1" points="652.61 1024.96 640.93 1024.96 640.93 989.92 646.12 1008.09 652.61 1024.96"/><polygon class="cls-7" points="629.24 1024.96 640.93 1024.96 640.93 989.92 635.74 1008.09 629.24 1024.96"/><rect class="cls-1" x="659.61" y="1060.77" width="3.64" height="5.46"/><polygon class="cls-1" points="669.61 1060.77 661.43 1060.77 661.43 1036.22 665.06 1048.95 669.61 1060.77"/><polygon class="cls-7" points="653.24 1060.77 661.43 1060.77 661.43 1036.22 657.79 1048.95 653.24 1060.77"/><rect class="cls-8" x="656.88" y="1045.31" width="9.09" height="3.64"/><polygon class="cls-1" points="669.61 1047.13 661.43 1047.13 661.43 1022.58 665.06 1035.31 669.61 1047.13"/><polygon class="cls-7" points="653.24 1047.13 661.43 1047.13 661.43 1022.58 657.79 1035.31 653.24 1047.13"/><rect class="cls-1" x="635.94" y="1081.77" width="4.97" height="7.46"/><polygon class="cls-1" points="649.61 1081.77 638.43 1081.77 638.43 1048.22 643.4 1065.62 649.61 1081.77"/><polygon class="cls-7" points="627.24 1081.77 638.43 1081.77 638.43 1048.22 633.46 1065.62 627.24 1081.77"/><rect class="cls-8" x="632.21" y="1060.65" width="12.43" height="4.97"/><polygon class="cls-1" points="649.61 1063.13 638.43 1063.13 638.43 1029.58 643.4 1046.98 649.61 1063.13"/><polygon class="cls-7" points="627.24 1063.13 638.43 1063.13 638.43 1029.58 633.46 1046.98 627.24 1063.13"/><rect class="cls-1" x="561.61" y="1063.77" width="3.64" height="5.46"/><polygon class="cls-1" points="571.61 1063.77 563.43 1063.77 563.43 1039.22 567.06 1051.95 571.61 1063.77"/><polygon class="cls-7" points="555.24 1063.77 563.43 1063.77 563.43 1039.22 559.79 1051.95 555.24 1063.77"/><rect class="cls-8" x="558.88" y="1048.31" width="9.09" height="3.64"/><polygon class="cls-1" points="571.61 1050.13 563.43 1050.13 563.43 1025.58 567.06 1038.31 571.61 1050.13"/><polygon class="cls-7" points="555.24 1050.13 563.43 1050.13 563.43 1025.58 559.79 1038.31 555.24 1050.13"/><rect class="cls-1" x="381.72" y="997.1" width="5.41" height="8.12"/><polygon class="cls-1" points="396.61 997.1 384.43 997.1 384.43 960.55 389.84 979.5 396.61 997.1"/><polygon class="cls-7" points="372.24 997.1 384.43 997.1 384.43 960.55 379.01 979.5 372.24 997.1"/><rect class="cls-8" x="377.66" y="974.09" width="13.54" height="5.41"/><polygon class="cls-1" points="396.61 976.8 384.43 976.8 384.43 940.25 389.84 959.2 396.61 976.8"/><polygon class="cls-7" points="372.24 976.8 384.43 976.8 384.43 940.25 379.01 959.2 372.24 976.8"/><rect class="cls-1" x="410.72" y="1033.1" width="5.41" height="8.12"/><polygon class="cls-1" points="425.61 1033.1 413.43 1033.1 413.43 996.55 418.84 1015.5 425.61 1033.1"/><polygon class="cls-7" points="401.24 1033.1 413.43 1033.1 413.43 996.55 408.01 1015.5 401.24 1033.1"/><rect class="cls-8" x="406.66" y="1010.09" width="13.54" height="5.41"/><polygon class="cls-1" points="425.61 1012.8 413.43 1012.8 413.43 976.25 418.84 995.2 425.61 1012.8"/><polygon class="cls-7" points="401.24 1012.8 413.43 1012.8 413.43 976.25 408.01 995.2 401.24 1012.8"/><line class="cls-9" x1="291.56" y1="935.36" x2="291.56" y2="1024.65"/><rect class="cls-1" x="726.72" y="803.1" width="5.41" height="8.12"/><polygon class="cls-1" points="741.61 803.1 729.43 803.1 729.43 766.55 734.84 785.5 741.61 803.1"/><polygon class="cls-7" points="717.24 803.1 729.43 803.1 729.43 766.55 724.01 785.5 717.24 803.1"/><rect class="cls-8" x="722.66" y="780.09" width="13.54" height="5.41"/><rect class="cls-1" x="742.72" y="783.1" width="5.41" height="8.12"/><polygon class="cls-1" points="757.61 783.1 745.43 783.1 745.43 746.55 750.84 765.5 757.61 783.1"/><polygon class="cls-7" points="733.24 783.1 745.43 783.1 745.43 746.55 740.01 765.5 733.24 783.1"/><rect class="cls-8" x="738.66" y="760.09" width="13.54" height="5.41"/><rect class="cls-1" x="399.28" y="634.77" width="6.3" height="9.46"/><polygon class="cls-1" points="416.61 634.77 402.43 634.77 402.43 592.22 408.73 614.28 416.61 634.77"/><polygon class="cls-7" points="388.24 634.77 402.43 634.77 402.43 592.22 396.12 614.28 388.24 634.77"/><rect class="cls-8" x="394.55" y="607.98" width="15.76" height="6.3"/><polygon class="cls-1" points="416.61 611.13 402.43 611.13 402.43 568.58 408.73 590.64 416.61 611.13"/><polygon class="cls-7" points="388.24 611.13 402.43 611.13 402.43 568.58 396.12 590.64 388.24 611.13"/><rect class="cls-1" x="424.22" y="721.24" width="7.99" height="11.98"/><polygon class="cls-1" points="446.19 721.24 428.22 721.24 428.22 667.32 436.21 695.28 446.19 721.24"/><polygon class="cls-7" points="410.24 721.24 428.22 721.24 428.22 667.32 420.23 695.28 410.24 721.24"/><rect class="cls-8" x="418.23" y="687.29" width="19.97" height="7.99"/><polygon class="cls-1" points="446.19 691.28 428.22 691.28 428.22 637.36 436.21 665.32 446.19 691.28"/><polygon class="cls-7" points="410.24 691.28 428.22 691.28 428.22 637.36 420.23 665.32 410.24 691.28"/><rect class="cls-1" x="652.72" y="801.1" width="5.41" height="8.12"/><polygon class="cls-1" points="667.61 801.1 655.43 801.1 655.43 764.55 660.84 783.5 667.61 801.1"/><polygon class="cls-7" points="643.24 801.1 655.43 801.1 655.43 764.55 650.01 783.5 643.24 801.1"/><rect class="cls-8" x="648.66" y="778.09" width="13.54" height="5.41"/><rect class="cls-1" x="678.12" y="792.47" width="3.93" height="5.89"/><polygon class="cls-1" points="688.91 792.47 680.08 792.47 680.08 765.97 684 779.71 688.91 792.47"/><polygon class="cls-7" points="671.24 792.47 680.08 792.47 680.08 765.97 676.15 779.71 671.24 792.47"/><rect class="cls-8" x="675.17" y="775.79" width="9.81" height="3.93"/><rect class="cls-1" x="701.72" y="808.1" width="5.41" height="8.12"/><polygon class="cls-1" points="716.61 808.1 704.43 808.1 704.43 771.55 709.84 790.5 716.61 808.1"/><polygon class="cls-7" points="692.24 808.1 704.43 808.1 704.43 771.55 699.01 790.5 692.24 808.1"/><rect class="cls-8" x="697.66" y="785.09" width="13.54" height="5.41"/><rect class="cls-1" x="1176.22" y="1103.1" width="3.41" height="5.12"/><polygon class="cls-1" points="1185.61 1103.1 1177.93 1103.1 1177.93 1080.05 1181.34 1092 1185.61 1103.1"/><polygon class="cls-7" points="1170.24 1103.1 1177.93 1103.1 1177.93 1080.05 1174.51 1092 1170.24 1103.1"/><rect class="cls-8" x="1173.66" y="1088.59" width="8.54" height="3.41"/><polygon class="cls-1" points="1185.61 1090.3 1177.93 1090.3 1177.93 1067.25 1181.34 1079.2 1185.61 1090.3"/><polygon class="cls-7" points="1170.24 1090.3 1177.93 1090.3 1177.93 1067.25 1174.51 1079.2 1170.24 1090.3"/><rect class="cls-1" x="1088.39" y="1115.24" width="4.66" height="6.98"/><polygon class="cls-1" points="1101.19 1115.24 1090.72 1115.24 1090.72 1083.82 1095.37 1100.11 1101.19 1115.24"/><polygon class="cls-7" points="1080.24 1115.24 1090.72 1115.24 1090.72 1083.82 1086.06 1100.11 1080.24 1115.24"/><rect class="cls-8" x="1084.9" y="1095.46" width="11.64" height="4.66"/><polygon class="cls-1" points="1101.19 1097.78 1090.72 1097.78 1090.72 1066.36 1095.37 1082.65 1101.19 1097.78"/><polygon class="cls-7" points="1080.24 1097.78 1090.72 1097.78 1090.72 1066.36 1086.06 1082.65 1080.24 1097.78"/><rect class="cls-1" x="1119.83" y="1090.57" width="3.19" height="4.79"/><polygon class="cls-1" points="1128.61 1090.57 1121.43 1090.57 1121.43 1069.02 1124.62 1080.2 1128.61 1090.57"/><polygon class="cls-7" points="1114.24 1090.57 1121.43 1090.57 1121.43 1069.02 1118.24 1080.2 1114.24 1090.57"/><rect class="cls-8" x="1117.44" y="1077" width="7.98" height="3.19"/><polygon class="cls-1" points="1128.61 1078.6 1121.43 1078.6 1121.43 1057.05 1124.62 1068.23 1128.61 1078.6"/><polygon class="cls-7" points="1114.24 1078.6 1121.43 1078.6 1121.43 1057.05 1118.24 1068.23 1114.24 1078.6"/><rect class="cls-1" x="1142.27" y="1107.49" width="5.16" height="7.73"/><polygon class="cls-1" points="1156.44 1107.49 1144.84 1107.49 1144.84 1072.69 1150 1090.74 1156.44 1107.49"/><polygon class="cls-7" points="1133.24 1107.49 1144.84 1107.49 1144.84 1072.69 1139.69 1090.74 1133.24 1107.49"/><rect class="cls-8" x="1138.4" y="1085.58" width="12.89" height="5.16"/><polygon class="cls-1" points="1156.44 1088.16 1144.84 1088.16 1144.84 1053.36 1150 1071.4 1156.44 1088.16"/><polygon class="cls-7" points="1133.24 1088.16 1144.84 1088.16 1144.84 1053.36 1139.69 1071.4 1133.24 1088.16"/><rect class="cls-1" x="1172.22" y="923.1" width="3.41" height="5.12"/><polygon class="cls-1" points="1181.61 923.1 1173.93 923.1 1173.93 900.05 1177.34 912 1181.61 923.1"/><polygon class="cls-7" points="1166.24 923.1 1173.93 923.1 1173.93 900.05 1170.51 912 1166.24 923.1"/><rect class="cls-8" x="1169.66" y="908.59" width="8.54" height="3.41"/><polygon class="cls-1" points="1181.61 910.3 1173.93 910.3 1173.93 887.25 1177.34 899.2 1181.61 910.3"/><polygon class="cls-7" points="1166.24 910.3 1173.93 910.3 1173.93 887.25 1170.51 899.2 1166.24 910.3"/><rect class="cls-1" x="1193.33" y="958.43" width="5.19" height="7.79"/><polygon class="cls-1" points="1207.61 958.44 1195.93 958.44 1195.93 923.39 1201.12 941.56 1207.61 958.44"/><polygon class="cls-7" points="1184.24 958.44 1195.93 958.44 1195.93 923.39 1190.74 941.56 1184.24 958.44"/><rect class="cls-8" x="1189.44" y="936.37" width="12.98" height="5.19"/><polygon class="cls-1" points="1207.61 938.96 1195.93 938.96 1195.93 903.92 1201.12 922.09 1207.61 938.96"/><polygon class="cls-7" points="1184.24 938.96 1195.93 938.96 1195.93 903.92 1190.74 922.09 1184.24 938.96"/><rect class="cls-8" x="625.44" y="931.37" width="12.98" height="5.19"/><path class="cls-9" d="M584.11,620.36l238,1H940.93a20.18,20.18,0,0,1,20.18,20.18v90.35a20.18,20.18,0,0,1-20.18,20.18H639.29a20.19,20.19,0,0,0-20.18,20.19v38.42a20.2,20.2,0,0,0,20.18,20.18H925.93A20.18,20.18,0,0,1,946.11,851v59.64a20.2,20.2,0,0,0,20.18,20.18h167.64A20.18,20.18,0,0,1,1154.11,951v77.64a20.19,20.19,0,0,1-20.18,20.18H683.11v-114H211.93"/><rect class="cls-1" x="629.33" y="953.43" width="5.19" height="7.79"/><polygon class="cls-1" points="643.61 953.44 631.93 953.44 631.93 918.39 637.12 936.56 643.61 953.44"/><polygon class="cls-7" points="620.24 953.44 631.93 953.44 631.93 918.39 626.74 936.56 620.24 953.44"/><polygon class="cls-1" points="643.61 933.96 631.93 933.96 631.93 898.92 637.12 917.09 643.61 933.96"/><polygon class="cls-7" points="620.24 933.96 631.93 933.96 631.93 898.92 626.74 917.09 620.24 933.96"/><polygon class="cls-1" points="757.61 762.8 745.43 762.8 745.43 726.25 750.84 745.2 757.61 762.8"/><polygon class="cls-7" points="733.24 762.8 745.43 762.8 745.43 726.25 740.01 745.2 733.24 762.8"/><polygon class="cls-1" points="741.61 782.8 729.43 782.8 729.43 746.25 734.84 765.2 741.61 782.8"/><polygon class="cls-7" points="717.24 782.8 729.43 782.8 729.43 746.25 724.01 765.2 717.24 782.8"/><polygon class="cls-1" points="667.61 780.8 655.43 780.8 655.43 744.25 660.84 763.2 667.61 780.8"/><polygon class="cls-7" points="643.24 780.8 655.43 780.8 655.43 744.25 650.01 763.2 643.24 780.8"/><polygon class="cls-1" points="688.91 777.75 680.08 777.75 680.08 751.25 684 764.99 688.91 777.75"/><polygon class="cls-7" points="671.24 777.75 680.08 777.75 680.08 751.25 676.15 764.99 671.24 777.75"/><polygon class="cls-1" points="716.61 787.8 704.43 787.8 704.43 751.25 709.84 770.2 716.61 787.8"/><polygon class="cls-7" points="692.24 787.8 704.43 787.8 704.43 751.25 699.01 770.2 692.24 787.8"/></svg>