<svg width="370" height="296" viewBox="0 0 370 296" fill="none" xmlns="http://www.w3.org/2000/svg">
<rect x="12" y="6" width="312" height="133" fill="#3A3B51"/>
<rect x="17" y="143" width="310" height="41" fill="#DADAE2"/>
<rect x="43" y="15" width="12" height="25" transform="rotate(90 43 15)" fill="#57586F"/>
<rect x="63" y="5" width="16" height="51" transform="rotate(90 63 5)" fill="#57586F"/>
<rect x="63" y="42" width="12" height="20" transform="rotate(90 63 42)" fill="#57586F"/>
<rect x="63" y="42" width="12" height="20" transform="rotate(90 63 42)" fill="#57586F"/>
<rect x="197" y="77" width="12" height="20" transform="rotate(90 197 77)" fill="#57586F"/>
<rect x="197" y="77" width="12" height="20" transform="rotate(90 197 77)" fill="#57586F"/>
<rect x="157" y="88" width="12" height="20" transform="rotate(90 157 88)" fill="#57586F"/>
<rect x="323" y="117" width="21" height="260" transform="rotate(90 323 117)" fill="#57586F"/>
<rect width="37" height="59" transform="matrix(4.37114e-08 -1 -1 -4.37114e-08 327 43)" fill="#57586F"/>
<rect x="63" y="52" width="10" height="20" transform="rotate(90 63 52)" fill="#4B4C64"/>
<rect x="254" y="77" width="10" height="49" transform="rotate(90 254 77)" fill="#4B4C64"/>
<rect x="131" y="88" width="10" height="20" transform="rotate(90 131 88)" fill="#4B4C64"/>
<rect x="156" y="65" width="10" height="20" transform="rotate(90 156 65)" fill="#4B4C64"/>
<rect x="179" y="143" width="16" height="162" transform="rotate(90 179 143)" fill="#4B4C64"/>
<rect x="264" y="46" width="10" height="185" transform="rotate(90 264 46)" fill="#4B4C64"/>
<rect x="69" y="75" width="52" height="51" transform="rotate(90 69 75)" fill="#4B4C64"/>
<rect x="130" y="66" width="10" height="55" transform="rotate(90 130 66)" fill="#4B4C64"/>
<rect x="222" y="96" width="10" height="55" transform="rotate(90 222 96)" fill="#4B4C64"/>
<rect x="37" y="27" width="6" height="19" transform="rotate(90 37 27)" fill="#4B4C64"/>
<rect x="69" y="21" width="20" height="26" transform="rotate(90 69 21)" fill="#4B4C64"/>
<rect x="256" y="106" width="21" height="161" transform="rotate(90 256 106)" fill="#4B4C64"/>
<rect x="325" y="143" width="11" height="151" transform="rotate(90 325 143)" fill="#4B4C64"/>
<rect x="323" y="116" width="17" height="34" transform="rotate(90 323 116)" fill="#4B4C64"/>
<rect x="166" y="210" width="109" height="52" fill="#DADAE2"/>
<rect x="37" y="210" width="27" height="43" fill="#DADAE2"/>
<rect x="56" y="252" width="8" height="12" fill="#DADAE2"/>
<rect x="43" y="253" width="13" height="6" fill="#DADAE2"/>
<rect x="166" y="262" width="108" height="22" fill="#3F2838"/>
<rect x="37" y="253" width="10" height="25" fill="#3F2838"/>
<rect x="47" y="257" width="9" height="27" fill="#3F2838"/>
<rect x="43" y="262" width="21" height="22" fill="#3F2838"/>
<rect width="13" height="22" transform="matrix(-1 0 0 1 287 262)" fill="#DADAE2"/>
<rect width="6" height="12" transform="matrix(-1 0 0 1 178 267)" fill="#DADAE2"/>
<rect width="6" height="12" transform="matrix(-1 0 0 1 61 267)" fill="#DADAE2"/>
<rect width="6" height="12" transform="matrix(-1 0 0 1 52 261)" fill="#DADAE2"/>
<rect width="6" height="12" transform="matrix(-1 0 0 1 190 267)" fill="#DADAE2"/>
<rect width="6" height="12" transform="matrix(-1 0 0 1 202 267)" fill="#DADAE2"/>
<rect width="6" height="12" transform="matrix(-1 0 0 1 214 267)" fill="#DADAE2"/>
<rect width="6" height="12" transform="matrix(-1 0 0 1 226 267)" fill="#DADAE2"/>
<rect width="6" height="12" transform="matrix(-1 0 0 1 238 267)" fill="#DADAE2"/>
<rect width="6" height="12" transform="matrix(-1 0 0 1 250 267)" fill="#DADAE2"/>
<rect width="6" height="12" transform="matrix(-1 0 0 1 262 267)" fill="#DADAE2"/>
<rect x="287" y="262" width="7" height="16" fill="#32282E"/>
<rect x="274" y="262" width="7" height="22" fill="#321E2C"/>
<rect x="37" y="253" width="6" height="25" fill="#321E2C"/>
<rect x="280" y="210" width="14" height="52" fill="#DADAE2"/>
<rect x="274" y="210" width="6" height="52" fill="#32282E"/>
<rect x="47" y="210" width="6" height="47" fill="#32282E"/>
<rect x="280" y="256" width="14" height="6" fill="#32282E"/>
<rect x="294" y="210" width="6" height="68" fill="#070006"/>
<rect x="18" y="210" width="5.99998" height="352" transform="rotate(-90 18 210)" fill="#070006"/>
<rect x="18" y="210" width="5.99999" height="87" transform="rotate(180 18 210)" fill="#070006"/>
<rect x="12" y="126" width="5.99999" height="120" transform="rotate(180 12 126)" fill="#070006"/>
<rect x="37" y="278" width="5.99999" height="68" transform="rotate(180 37 278)" fill="#070006"/>
<rect x="43" y="284" width="6" height="6" transform="rotate(180 43 284)" fill="#070006"/>
<rect x="64" y="290" width="21" height="6" transform="rotate(180 64 290)" fill="#070006"/>
<rect x="370" y="210" width="5.99998" height="205" transform="rotate(180 370 210)" fill="#070006"/>
<rect x="345" y="184" width="5.99998" height="179" transform="rotate(180 345 184)" fill="#070006"/>
<rect x="364" y="5" width="6" height="37" transform="rotate(90 364 5)" fill="#070006"/>
<rect x="333" width="6" height="13" transform="rotate(90 333 0)" fill="#070006"/>
<rect x="314" width="6" height="26" transform="rotate(90 314 0)" fill="#070006"/>
<rect x="248" width="6" height="12" transform="rotate(90 248 0)" fill="#070006"/>
<rect x="217" width="6" height="26" transform="rotate(90 217 0)" fill="#070006"/>
<rect x="152" width="6" height="37" transform="rotate(90 152 0)" fill="#070006"/>
<rect x="63" width="6" height="63" transform="rotate(90 63 0)" fill="#070006"/>
<rect x="115" y="6" width="6" height="52" transform="rotate(90 115 6)" fill="#070006"/>
<rect x="154" y="156" width="6" height="6" fill="#696B7A"/>
<rect x="154" y="156" width="6" height="6" fill="#4B4C64"/>
<rect x="165" y="156" width="6" height="6" fill="#696B7A"/>
<rect x="165" y="156" width="6" height="6" fill="#4B4C64"/>
<rect x="134" y="151" width="6" height="6" fill="#696B7A"/>
<rect x="134" y="151" width="6" height="6" fill="#4B4C64"/>
<rect x="141" y="157" width="6" height="6" fill="#696B7A"/>
<rect x="141" y="157" width="6" height="6" fill="#4B4C64"/>
<rect x="225" y="157" width="6" height="6" fill="#696B7A"/>
<rect x="225" y="157" width="6" height="6" fill="#3A3B51"/>
<rect x="250" y="160" width="6" height="6" fill="#696B7A"/>
<rect x="250" y="160" width="6" height="6" fill="#3A3B51"/>
<rect x="256" y="165" width="6" height="6" fill="#696B7A"/>
<rect x="256" y="165" width="6" height="6" fill="#3A3B51"/>
<rect x="263" y="157" width="6" height="6" fill="#696B7A"/>
<rect x="263" y="157" width="6" height="6" fill="#3A3B51"/>
<rect x="275" y="157" width="6" height="11" fill="#696B7A"/>
<rect x="275" y="157" width="6" height="11" fill="#3A3B51"/>
<rect x="292" y="157" width="11" height="11" fill="#696B7A"/>
<rect x="292" y="157" width="11" height="11" fill="#3A3B51"/>
<rect x="231" y="163" width="6" height="6" fill="#696B7A"/>
<rect x="231" y="163" width="6" height="6" fill="#3A3B51"/>
<rect x="237" y="157" width="6" height="6" fill="#696B7A"/>
<rect x="237" y="157" width="6" height="6" fill="#3A3B51"/>
<rect x="250" y="154" width="6" height="6" fill="#696B7A"/>
<rect x="250" y="154" width="6" height="6" fill="#3A3B51"/>
<rect x="216" y="151" width="40" height="6" fill="#696B7A"/>
<rect x="216" y="151" width="40" height="6" fill="#3A3B51"/>
<rect x="37" y="9" width="6" height="19" transform="rotate(90 37 9)" fill="#070006"/>
<rect x="18" y="123" width="6.00001" height="108" transform="rotate(-180 18 123)" fill="#070006"/>
<rect x="191" y="6" width="6" height="39" transform="rotate(90 191 6)" fill="#070006"/>
<rect x="224" y="6" width="6" height="7" transform="rotate(90 224 6)" fill="#070006"/>
<rect x="233" y="52" width="6.00001" height="152" transform="rotate(90 233 52)" fill="#070006"/>
<rect x="275" y="157" width="16" height="6" transform="rotate(90 275 157)" fill="#070006"/>
<rect x="294" y="157" width="16" height="6" transform="rotate(90 294 157)" fill="#070006"/>
<rect x="217" y="147" width="46" height="6" fill="#070006"/>
<rect x="327" y="11" width="132" height="5.99999" transform="rotate(90 327 11)" fill="#070006"/>
<rect x="146" y="153" width="71" height="6" fill="#070006"/>
<rect x="313" y="157" width="57" height="6" transform="rotate(-180 313 157)" fill="#070006"/>
<rect x="327" y="151" width="21" height="14" transform="rotate(90 327 151)" fill="#070006"/>
<rect x="327" y="174" width="276" height="5.99998" transform="rotate(-180 327 174)" fill="#070006"/>
<rect x="44" y="15" width="6" height="7" transform="rotate(90 44 15)" fill="#070006"/>
<rect x="49" y="21" width="6" height="6" transform="rotate(90 49 21)" fill="#070006"/>
<rect x="43" y="32" width="47" height="6" transform="rotate(90 43 32)" fill="#070006"/>
<rect x="69" y="31" width="6" height="6" transform="rotate(90 69 31)" fill="#070006"/>
<rect x="63" y="25" width="6" height="6" transform="rotate(90 63 25)" fill="#070006"/>
<rect x="56" y="30" width="6" height="6" transform="rotate(90 56 30)" fill="#070006"/>
<rect x="29" y="33" width="9" height="6" transform="rotate(90 29 33)" fill="#070006"/>
<rect x="31" y="65" width="44" height="6" transform="rotate(90 31 65)" fill="#070006"/>
<rect x="24" y="39" width="4" height="6" transform="rotate(90 24 39)" fill="#070006"/>
<rect x="37" y="73" width="6" height="6" transform="rotate(90 37 73)" fill="#070006"/>
<rect x="62" y="69" width="6" height="13" transform="rotate(90 62 69)" fill="#070006"/>
<rect x="63" y="84" width="6" height="7" transform="rotate(90 63 84)" fill="#070006"/>
<rect x="69" y="115" width="6" height="6" transform="rotate(90 69 115)" fill="#070006"/>
<rect x="63" y="109" width="6" height="7" transform="rotate(90 63 109)" fill="#070006"/>
<rect x="63" y="121" width="6" height="6" transform="rotate(90 63 121)" fill="#070006"/>
<rect x="44" y="132" width="6" height="6" transform="rotate(90 44 132)" fill="#070006"/>
<rect x="57" y="133" width="6" height="6" transform="rotate(90 57 133)" fill="#070006"/>
<rect x="76" y="121" width="6" height="6" transform="rotate(90 76 121)" fill="#070006"/>
<rect x="154" y="117" width="6" height="59" transform="rotate(90 154 117)" fill="#070006"/>
<rect width="6" height="6" transform="matrix(-4.37114e-08 1 1 4.37114e-08 154 122)" fill="#070006"/>
<rect width="6" height="6" transform="matrix(-4.37114e-08 1 1 4.37114e-08 160 116)" fill="#070006"/>
<rect width="6" height="6" transform="matrix(-4.37114e-08 1 1 4.37114e-08 102 122)" fill="#070006"/>
<rect width="6" height="6" transform="matrix(-4.37114e-08 1 1 4.37114e-08 108 132)" fill="#070006"/>
<rect width="6" height="6" transform="matrix(-4.37114e-08 1 1 4.37114e-08 135 133)" fill="#070006"/>
<rect width="6" height="6" transform="matrix(-4.37114e-08 1 1 4.37114e-08 147 132)" fill="#070006"/>
<rect width="6" height="13" transform="matrix(-4.37114e-08 1 1 4.37114e-08 159 132)" fill="#070006"/>
<rect width="6" height="13" transform="matrix(-4.37114e-08 1 1 4.37114e-08 179 116)" fill="#070006"/>
<rect width="6" height="19" transform="matrix(-4.37114e-08 1 1 4.37114e-08 198 105)" fill="#070006"/>
<rect width="6" height="7" transform="matrix(-4.37114e-08 1 1 4.37114e-08 204 111)" fill="#070006"/>
<rect width="6" height="7" transform="matrix(-4.37114e-08 1 1 4.37114e-08 191 111)" fill="#070006"/>
<rect width="6" height="7" transform="matrix(-4.37114e-08 1 1 4.37114e-08 198 117)" fill="#070006"/>
<rect width="11" height="7" transform="matrix(-4.37114e-08 1 1 4.37114e-08 275 111)" fill="#070006"/>
<rect x="95" y="111" width="6" height="7" transform="rotate(90 95 111)" fill="#070006"/>
<rect x="83" y="109" width="6" height="14" transform="rotate(90 83 109)" fill="#070006"/>
<rect x="114" y="89" width="8" height="6" transform="rotate(90 114 89)" fill="#070006"/>
<rect x="141" y="105" width="6" height="53" transform="rotate(90 141 105)" fill="#070006"/>
<rect x="69" y="89" width="20" height="6" transform="rotate(90 69 89)" fill="#070006"/>
<rect x="87" y="96" width="10" height="18" transform="rotate(90 87 96)" fill="#070006"/>
<rect x="23" y="48" width="4" height="6" transform="rotate(90 23 48)" fill="#070006"/>
<rect x="51" y="105" width="5" height="33" transform="rotate(90 51 105)" fill="#070006"/>
<rect x="37" y="122" width="5" height="20" transform="rotate(90 37 122)" fill="#070006"/>
<rect x="49" y="85" width="5" height="18" transform="rotate(90 49 85)" fill="#070006"/>
<rect x="49" y="96" width="5" height="18" transform="rotate(90 49 96)" fill="#070006"/>
<rect x="49" y="98" width="6" height="29" transform="rotate(-180 49 98)" fill="#070006"/>
<rect x="37" y="53" width="16" height="6" transform="rotate(90 37 53)" fill="#070006"/>
<rect x="38" y="42" width="6" height="15" transform="rotate(90 38 42)" fill="#070006"/>
<rect x="63" y="36" width="6" height="21" transform="rotate(90 63 36)" fill="#070006"/>
<rect x="43" y="27" width="6" height="14" transform="rotate(90 43 27)" fill="#070006"/>
<rect x="69" y="15" width="6" height="20" transform="rotate(90 69 15)" fill="#070006"/>
<rect x="86" y="15" width="6" height="5" transform="rotate(90 86 15)" fill="#070006"/>
<rect x="88" y="57" width="6" height="5" transform="rotate(90 88 57)" fill="#070006"/>
<rect x="217" y="58" width="8" height="5" transform="rotate(90 217 58)" fill="#070006"/>
<rect x="185" y="57" width="8" height="5" transform="rotate(90 185 57)" fill="#070006"/>
<rect x="75" y="31" width="17" height="6" transform="rotate(90 75 31)" fill="#070006"/>
<rect x="81" y="21" width="6" height="12" transform="rotate(90 81 21)" fill="#070006"/>
<rect x="107" y="12" width="6" height="18" transform="rotate(90 107 12)" fill="#070006"/>
<rect x="150" y="11" width="6" height="30" transform="rotate(90 150 11)" fill="#070006"/>
<rect x="191" y="64" width="47" height="50" transform="rotate(90 191 64)" fill="#070006"/>
<rect x="179" y="108" width="8" height="13" transform="rotate(90 179 108)" fill="#070006"/>
<rect x="236" y="6" width="6" height="6" transform="rotate(90 236 6)" fill="#070006"/>
<rect x="230" y="12" width="6" height="6" transform="rotate(90 230 12)" fill="#070006"/>
<rect x="236" y="19" width="7" height="6" transform="rotate(90 236 19)" fill="#070006"/>
<rect x="172" y="11" width="6" height="6" transform="rotate(90 172 11)" fill="#070006"/>
<rect x="179" y="18" width="6" height="6" transform="rotate(90 179 18)" fill="#070006"/>
<rect x="160" y="16" width="6" height="6" transform="rotate(90 160 16)" fill="#070006"/>
<rect x="145" y="14" width="6" height="6" transform="rotate(90 145 14)" fill="#070006"/>
<rect x="140" y="21" width="13" height="6" transform="rotate(90 140 21)" fill="#070006"/>
<rect x="133" y="14" width="6" height="6" transform="rotate(90 133 14)" fill="#070006"/>
<rect x="120" y="18" width="5" height="13" transform="rotate(90 120 18)" fill="#070006"/>
<rect x="126" y="23" width="12" height="6" transform="rotate(90 126 23)" fill="#070006"/>
<rect x="120" y="29" width="6" height="6" transform="rotate(90 120 29)" fill="#070006"/>
<rect x="108" y="29" width="6" height="6" transform="rotate(90 108 29)" fill="#070006"/>
<rect x="95" y="25" width="6" height="20" transform="rotate(90 95 25)" fill="#070006"/>
<rect x="114" y="23" width="6" height="6" transform="rotate(90 114 23)" fill="#070006"/>
<rect x="108" y="23" width="6" height="13" transform="rotate(90 108 23)" fill="#070006"/>
<rect x="153" y="23" width="10" height="6" transform="rotate(90 153 23)" fill="#070006"/>
<rect x="211" y="12" width="6" height="20" transform="rotate(90 211 12)" fill="#070006"/>
<rect x="235" y="29" width="6" height="11" transform="rotate(90 235 29)" fill="#070006"/>
<rect x="186" y="22" width="10" height="26" transform="rotate(90 186 22)" fill="#070006"/>
<rect x="217" y="16" width="6" height="6" transform="rotate(90 217 16)" fill="#070006"/>
<rect x="224" y="22" width="6" height="8" transform="rotate(90 224 22)" fill="#070006"/>
<rect x="256" y="6" width="6" height="8" transform="rotate(90 256 6)" fill="#070006"/>
<rect x="274" y="12" width="6" height="18" transform="rotate(90 274 12)" fill="#070006"/>
<rect x="288" y="6" width="6" height="14" transform="rotate(90 288 6)" fill="#070006"/>
<rect x="320" y="6" width="6" height="6" transform="rotate(90 320 6)" fill="#070006"/>
<rect x="288" y="22" width="6" height="6" transform="rotate(90 288 22)" fill="#070006"/>
<rect x="274" y="21" width="6" height="17" transform="rotate(90 274 21)" fill="#070006"/>
<rect x="256" y="17" width="6" height="17" transform="rotate(90 256 17)" fill="#070006"/>
<rect x="216" y="22" width="10" height="24" transform="rotate(90 216 22)" fill="#070006"/>
<rect x="262" y="31" width="15" height="172" transform="rotate(90 262 31)" fill="#070006"/>
<rect x="248" y="12" width="14" height="12" transform="rotate(90 248 12)" fill="#070006"/>
<rect x="268" y="27" width="6" height="18" transform="rotate(90 268 27)" fill="#070006"/>
<rect x="294" y="28" width="6" height="6" transform="rotate(90 294 28)" fill="#070006"/>
<rect x="294" y="33" width="6" height="6" transform="rotate(90 294 33)" fill="#070006"/>
<rect x="300" y="38" width="6" height="6" transform="rotate(90 300 38)" fill="#070006"/>
<rect x="294" y="47" width="6" height="6" transform="rotate(90 294 47)" fill="#070006"/>
<rect x="281" y="31" width="10" height="31" transform="rotate(90 281 31)" fill="#070006"/>
<rect x="302" y="41" width="6" height="27" transform="rotate(90 302 41)" fill="#070006"/>
<rect x="333" y="178" width="5.99999" height="167" transform="rotate(180 333 178)" fill="#60545D"/>
<rect x="339" y="178" width="5.99999" height="167" transform="rotate(180 339 178)" fill="#3B2233"/>
<rect x="354" y="184" width="8.99998" height="173" transform="rotate(180 354 184)" fill="#60545D"/>
<rect x="364" y="184" width="9.99998" height="173" transform="rotate(180 364 184)" fill="#3B2233"/>
<rect x="364" y="189" width="6.00001" height="346" transform="rotate(90 364 189)" fill="#070006"/>
<rect x="364" y="184" width="6.00001" height="339" transform="rotate(90 364 184)" fill="#362E25"/>
<rect x="339" y="174" width="10" height="289" transform="rotate(90 339 174)" fill="#211616"/>
<rect x="18" y="201" width="5.99998" height="346" transform="rotate(-90 18 201)" fill="#DADAE2"/>
<rect x="18" y="204" width="2.99998" height="346" transform="rotate(-90 18 204)" fill="#39292D"/>
<rect x="287" y="284" width="6.00001" height="121" transform="rotate(90 287 284)" fill="#070006"/>
<rect x="166" y="290" width="6" height="12" transform="rotate(90 166 290)" fill="#070006"/>
<rect x="76" y="290" width="6" height="12" transform="rotate(90 76 290)" fill="#070006"/>
<rect x="154" y="210" width="6" height="80" fill="#070006"/>
<rect x="216" y="210" width="6" height="26" fill="#070006"/>
<rect x="250" y="210" width="6" height="26" fill="#070006"/>
<rect x="250" y="230" width="6" height="28" transform="rotate(90 250 230)" fill="#070006"/>
<rect x="233" y="210" width="6" height="26" fill="#070006"/>
<rect x="222" y="210" width="11" height="20" fill="#756F7D"/>
<rect x="222" y="210" width="11" height="11" fill="#363139"/>
<rect x="239" y="210" width="11" height="20" fill="#756F7D"/>
<rect x="239" y="210" width="11" height="11" fill="#363139"/>
<rect x="70" y="210" width="6" height="80" fill="#070006"/>
<rect x="155" y="216" width="6" height="80" transform="rotate(90 155 216)" fill="#070006"/>
<rect x="102" y="278" width="14" height="46" transform="rotate(180 102 278)" fill="#39292D"/>
<rect x="88" y="290" width="6.00001" height="68" transform="rotate(-180 88 290)" fill="#070006"/>
<rect x="108" y="278" width="6" height="46" transform="rotate(-180 108 278)" fill="#070006"/>
<rect x="128" y="278" width="6" height="46" transform="rotate(-180 128 278)" fill="#070006"/>
<rect x="142" y="278" width="14" height="46" transform="rotate(180 142 278)" fill="#39292D"/>
<rect x="122" y="278" width="14" height="46" transform="rotate(180 122 278)" fill="#39292D"/>
<rect x="88" y="232" width="6" height="54" transform="rotate(-90 88 232)" fill="#070006"/>
<rect x="88" y="284" width="6" height="55" transform="rotate(-90 88 284)" fill="#5D5751"/>
<rect x="148" y="290" width="6.00001" height="68" transform="rotate(-180 148 290)" fill="#070006"/>
<rect x="75" y="290" width="6" height="79" transform="rotate(-90 75 290)" fill="#070006"/>
<rect x="75" y="281" width="6" height="79" transform="rotate(-90 75 281)" fill="#070006"/>
<rect x="154" y="284" width="6" height="52" transform="rotate(180 154 284)" fill="#39292D"/>
<rect x="82" y="284" width="6" height="52" transform="rotate(180 82 284)" fill="#39292D"/>
<rect x="102" y="256" width="14" height="24" transform="rotate(180 102 256)" fill="#5A494D"/>
<rect x="122" y="256" width="14" height="24" transform="rotate(180 122 256)" fill="#5A494D"/>
<rect x="142" y="256" width="14" height="24" transform="rotate(180 142 256)" fill="#5A494D"/>
<rect width="6" height="80" transform="matrix(4.37114e-08 -1 -1 -4.37114e-08 155 216)" fill="#5D556E"/>
<rect width="10" height="6" transform="matrix(4.37114e-08 -1 -1 -4.37114e-08 82 232)" fill="#5D556E"/>
<rect width="10" height="6" transform="matrix(4.37114e-08 -1 -1 -4.37114e-08 154 232)" fill="#5D556E"/>
<rect width="54" height="4" transform="matrix(-1 8.74228e-08 8.74228e-08 1 142 222)" fill="#5D556E"/>
<rect x="294" y="278" width="6" height="7" transform="rotate(90 294 278)" fill="#070006"/>
<rect x="160" y="210" width="6" height="80" fill="#5D556E"/>
<rect x="64" y="210" width="6" height="80" fill="#5D556E"/>
<rect x="127" y="147" width="19" height="6" fill="#070006"/>
<rect x="63" y="153" width="64" height="6" fill="#070006"/>
<rect x="43" y="147" width="20" height="6" fill="#070006"/>
<rect x="18" y="137" width="309" height="6" fill="#070006"/>
<rect x="51" y="127" width="262" height="6" fill="#070006"/>
<rect x="289" y="116" width="24" height="6" fill="#070006"/>
<rect x="289" y="105" width="24" height="6" fill="#070006"/>
<rect x="289" y="95" width="24" height="6" fill="#070006"/>
<rect x="289" y="84" width="24" height="6" fill="#070006"/>
<rect x="289" y="74" width="24" height="6" fill="#070006"/>
<rect x="307" y="69" width="6" height="58" fill="#070006"/>
<rect x="295" y="54" width="6" height="15" fill="#070006"/>
<rect x="308" y="17" width="6" height="28" fill="#070006"/>
<rect x="273" y="69" width="22" height="5" fill="#070006"/>
<rect x="274" y="73" width="7" height="5" fill="#070006"/>
<rect x="233" y="52" width="37" height="6" fill="#070006"/>
<rect x="262" y="41" width="13" height="17" fill="#070006"/>
<rect x="281" y="58" width="6" height="16" fill="#070006"/>
<rect x="269" y="48" width="6" height="58" fill="#070006"/>
<rect x="263" y="106" width="6" height="15" fill="#070006"/>
<rect x="101" y="57" width="6" height="17" fill="#070006"/>
<rect x="89" y="64" width="6" height="10" fill="#070006"/>
<rect x="63" y="42" width="6" height="22" fill="#070006"/>
<rect x="75" y="36" width="6" height="22" fill="#070006"/>
<rect x="107" y="68" width="6" height="17" fill="#070006"/>
<rect x="113" y="67" width="6" height="7" fill="#070006"/>
<rect x="68" y="78" width="13" height="7" fill="#070006"/>
<rect x="38" y="110" width="13" height="11" fill="#070006"/>
<rect x="95" y="78" width="13" height="7" fill="#070006"/>
<rect x="269" y="84" width="6" height="31" transform="rotate(90 269 84)" fill="#070006"/>
<rect x="239" y="84" width="6" height="51" transform="rotate(90 239 84)" fill="#070006"/>
<rect x="269" y="73" width="6" height="78" transform="rotate(90 269 73)" fill="#070006"/>
<rect x="270" y="64" width="6" height="82" transform="rotate(90 270 64)" fill="#070006"/>
<rect x="229" y="78" width="6" height="18" transform="rotate(90 229 78)" fill="#070006"/>
<rect x="254" y="68" width="6" height="18" transform="rotate(90 254 68)" fill="#070006"/>
<rect x="242" y="95" width="6" height="51" transform="rotate(90 242 95)" fill="#070006"/>
<rect x="141" y="96" width="4" height="54" transform="rotate(90 141 96)" fill="#070006"/>
<rect x="141" y="85" width="4" height="73" transform="rotate(90 141 85)" fill="#070006"/>
<rect x="141" y="74" width="4" height="84" transform="rotate(90 141 74)" fill="#070006"/>
<rect x="142" y="64" width="4" height="79" transform="rotate(90 142 64)" fill="#070006"/>
<rect x="262" y="89" width="6" height="24" transform="rotate(90 262 89)" fill="#070006"/>
<rect x="256" y="121" width="5" height="8" transform="rotate(-90 256 121)" fill="#070006"/>
<rect x="256" y="111" width="5" height="7" transform="rotate(-90 256 111)" fill="#070006"/>
<rect x="250" y="106" width="5" height="13" transform="rotate(-90 250 106)" fill="#070006"/>
<rect x="223" y="111" width="5" height="13" transform="rotate(-90 223 111)" fill="#070006"/>
<rect x="262" y="100" width="5" height="9" transform="rotate(-90 262 100)" fill="#070006"/>
<rect x="313" y="69" width="5" height="9" transform="rotate(-90 313 69)" fill="#070006"/>
<rect x="313" y="58" width="5" height="9" transform="rotate(-90 313 58)" fill="#070006"/>
<rect x="302" y="48" width="5" height="21" transform="rotate(-90 302 48)" fill="#070006"/>
<rect x="302" y="53" width="5" height="11" transform="rotate(-90 302 53)" fill="#070006"/>
<rect x="299" y="22" width="5" height="11" transform="rotate(-90 299 22)" fill="#070006"/>
<rect x="314" y="17" width="5" height="11" transform="rotate(-90 314 17)" fill="#070006"/>
<rect x="288" y="17" width="5" height="11" transform="rotate(-90 288 17)" fill="#070006"/>
<rect x="277" y="22" width="5" height="11" transform="rotate(-90 277 22)" fill="#070006"/>
<rect x="237" y="106" width="5" height="5" transform="rotate(-90 237 106)" fill="#070006"/>
<rect x="242" y="111" width="5" height="8" transform="rotate(-90 242 111)" fill="#070006"/>
<rect x="250" y="116" width="5" height="6" transform="rotate(-90 250 116)" fill="#070006"/>
<rect x="269" y="127" width="6" height="6" transform="rotate(-90 269 127)" fill="#070006"/>
<rect x="250" y="127" width="6" height="6" transform="rotate(-90 250 127)" fill="#070006"/>
<rect x="283" y="128" width="6" height="6" transform="rotate(-90 283 128)" fill="#070006"/>
<rect x="296" y="128" width="6" height="6" transform="rotate(-90 296 128)" fill="#070006"/>
<rect x="289" y="118" width="49" height="6" transform="rotate(-90 289 118)" fill="#070006"/>
<rect x="108" y="159" width="6" height="6" fill="#070006"/>
<rect x="88" y="162" width="6" height="6" fill="#070006"/>
<rect x="76" y="163" width="6" height="6" fill="#070006"/>
<rect x="58" y="164" width="10" height="6" fill="#070006"/>
<rect x="52" y="158" width="11" height="6" fill="#070006"/>
<rect x="69" y="157" width="6" height="6" fill="#070006"/>
<rect x="82" y="156" width="6" height="6" fill="#070006"/>
<rect x="44" y="163" width="6" height="6" fill="#070006"/>
<rect x="37" y="168" width="6" height="6" fill="#070006"/>
<rect x="24" y="181" width="14" height="3" fill="#070006"/>
<rect x="18" y="184" width="7" height="6" fill="#070006"/>
<rect x="37" y="174" width="13" height="10" fill="#070006"/>
<rect x="23" y="159" width="6" height="6" fill="#070006"/>
<rect x="17" y="153" width="6" height="6" fill="#070006"/>
<rect x="29" y="153" width="6" height="6" fill="#070006"/>
<rect x="37" y="158" width="6" height="6" fill="#070006"/>
<rect x="43" y="151" width="6" height="6" fill="#070006"/>
<rect x="102" y="163" width="6" height="6" fill="#070006"/>
<rect x="134" y="162" width="6" height="6" fill="#696B7A"/>
<rect x="134" y="162" width="6" height="6" fill="#4B4C64"/>
<rect x="120" y="162" width="6" height="6" fill="#696B7A"/>
<rect x="120" y="162" width="6" height="6" fill="#4B4C64"/>
<rect x="127" y="159" width="6" height="6" fill="#696B7A"/>
<rect x="127" y="159" width="6" height="6" fill="#4B4C64"/>
<rect x="96" y="157" width="6" height="6" fill="#070006"/>
<rect x="96" y="153" width="13" height="6" fill="#070006"/>
</svg>
