<svg width="527" height="546" viewBox="0 0 527 546" fill="none" xmlns="http://www.w3.org/2000/svg">
<g clip-path="url(#clip0_11_884)">
<path d="M165 469.83C165 469.83 168.36 496.72 205.33 512.23C205.33 512.23 204.33 518.69 222.13 476.55L165 469.83Z" fill="#1E1647"/>
<path d="M111.25 156.62C111.25 156.62 106.34 97.55 105.82 78.93C105.3 60.31 100.4 3.43997 102.46 0.0799731C104.52 -3.28003 213.89 99.87 213.89 99.87C213.89 99.87 216.22 79.71 218 73.5C218 73.5 245.14 98.06 245.92 97.8C246.7 97.54 253.03 81.13 254.19 82.94C255.35 84.75 263.63 100.78 264.02 100.52C264.41 100.26 327.1 73.63 341.57 71.69C356.04 69.75 354.5 70.69 353.21 73.37C351.92 76.05 327.1 117.19 327.1 117.19C327.1 117.19 369.88 115.51 371.18 114.19L353.18 135.52C353.18 135.52 529 131.93 527 140.2L401.32 248.79C401.32 248.79 401.32 255.51 401.84 262.79C401.84 262.79 500.34 269.51 506.84 275.33C506.84 275.33 501.16 281.53 496.89 281.92C496.89 281.92 525.2 294.5 515.72 296.31C509.484 297.64 503.495 299.938 497.97 303.12C497.97 303.12 499.17 315.44 496.42 321.47C496.42 321.47 486.33 315.87 480.73 316.22C480.73 316.22 410.93 351.22 384.82 355.86C384.82 355.86 358.19 415.58 343.97 426.44C343.97 426.44 362.58 484.61 328.46 518.73C294.34 552.85 277.79 546.14 271.58 540.45C265.37 534.76 245.73 484.09 233.84 485.12C221.95 486.15 185.88 496.46 119 453C118.023 453.135 117.097 453.514 116.306 454.103C115.516 454.693 114.888 455.472 114.48 456.37C114.48 456.37 117.48 473.3 114.99 473.69C112.5 474.08 104.26 466.32 104.26 466.32C104.26 466.32 100 466.84 100.77 479.89C101.54 492.94 90.17 469.81 87.85 469.29C85.53 468.77 85.39 478.21 82.55 477.18C79.71 476.15 71.3 463.73 70.91 457.4C70.52 451.07 2.84 425.79 49.21 350.13C49.21 350.13 43.86 270.33 62.82 231.03C62.82 231.03 36.28 187.26 26.63 166.57C26.63 166.57 23.74 162.05 7.84 157.85C7.84 157.85 8.84 153.85 17.73 147.77C26.62 141.69 4.57 135 0 127.62C0 127.62 1 123.83 26.37 125.04C26.37 125.04 21.54 111.85 22.32 107.46C22.32 107.46 13.19 97.37 111.25 156.62Z" fill="#1E1647"/>
<path d="M181.47 246.35C181.47 247.05 181.35 247.77 181.24 248.51C180.52 253.03 178.64 256.51 177.04 256.22C175.44 255.93 174.73 252.11 175.45 247.59C176.11 243.41 177.78 240.14 179.29 239.89C171.85 217.89 163.87 195.07 163.13 195.89C89.37 276.21 192.43 279.31 192.43 279.31C192.43 279.31 187.38 263.91 181.47 246.35Z" fill="#940032"/>
<path d="M175.45 247.59C174.73 252.11 175.45 255.97 177.04 256.22C178.63 256.47 180.52 253.03 181.24 248.51C181.35 247.77 181.43 247.05 181.47 246.35C180.76 244.22 180.03 242.06 179.29 239.89C177.78 240.14 176.11 243.41 175.45 247.59Z" fill="black"/>
<path d="M331.69 240.34L278.69 273.92C279.417 276.067 279.693 278.341 279.5 280.6C279.24 285.16 277.73 288.78 276.11 288.69C274.49 288.6 273.39 284.83 273.65 280.27C273.711 279.113 273.865 277.962 274.11 276.83L249.07 292.7L247.93 293.43C334.45 351.68 331.69 240.34 331.69 240.34Z" fill="#940032"/>
<path d="M276.12 288.69C277.74 288.78 279.25 285.16 279.51 280.6C279.703 278.341 279.427 276.067 278.7 273.92L274.12 276.83C273.875 277.962 273.721 279.113 273.66 280.27C273.4 284.83 274.5 288.6 276.12 288.69Z" fill="black"/>
<path d="M137.87 292.43L135.43 302.43L132.13 316.26L127.19 337.57C135.48 347.57 147 357.23 162.84 365.9L175.05 317C161.512 310.691 148.982 302.411 137.87 292.43Z" fill="white"/>
<path d="M136.53 291.21C117.53 273.58 110.74 257.4 110.74 257.4C106.56 275.12 102.8 306.67 125.74 335.78L130.13 316.84L136.53 291.21Z" fill="white"/>
<path d="M322.73 326.86C322.73 326.86 310.44 332.8 287.73 335.34L286.73 343.58L284.58 355.39L280 376.56C311.12 359.09 322.73 326.86 322.73 326.86Z" fill="white"/>
<path d="M206.22 328.24C196.017 325.595 186.066 322.061 176.48 317.68L164.24 366.68C174.184 371.94 184.534 376.394 195.19 380C205.561 383.644 216.331 386.031 227.27 387.11L236.61 334.38C226.368 332.934 216.22 330.884 206.22 328.24Z" fill="white"/>
<path d="M285.24 343.06L286.12 335.5C270.136 337.041 254.026 336.705 238.12 334.5L228.79 387.15C248.89 388.69 265.17 384.41 278.18 377.52L282.72 354.61L285.24 343.06Z" fill="white"/>
<path d="M175.05 317L162.84 365.9L164.24 366.67L176.48 317.67L175.05 317Z" fill="black"/>
<path d="M135.43 302.43L137.87 292.43L136.53 291.21L130.13 316.84L125.74 335.78C126.21 336.38 126.74 336.98 127.19 337.57L132.13 316.26L135.43 302.43Z" fill="black"/>
<path d="M236.61 334.33L227.27 387.06C227.79 387.11 228.27 387.16 228.82 387.19L238.15 334.54L236.61 334.33Z" fill="black"/>
<path d="M286.71 343.58L287.71 335.34L286.14 335.5L285.26 343.06L282.77 354.65L278.23 377.56C278.84 377.23 279.45 376.9 280.05 376.56L284.58 355.39L286.71 343.58Z" fill="black"/>
</g>
<defs>
<clipPath id="clip0_11_884">
<rect width="526.99" height="545.05" fill="white"/>
</clipPath>
</defs>
</svg>
