<svg width="456" height="262" viewBox="0 0 456 262" fill="none" xmlns="http://www.w3.org/2000/svg">
<path d="M430.73 168H142.73V256.04H430.73V168Z" fill="#F8F8F8"/>
<path d="M444.35 157.6H129.12V170.38H444.35V157.6Z" fill="#AAA6BC"/>
<path d="M436.33 83.3099H136.77V157.59H436.33V83.3099Z" fill="white"/>
<path d="M379.62 2.17981H193.47V83.3199H379.62V2.17981Z" fill="#AAA6BC"/>
<path d="M193.48 8.67981H181.92V89.8199H193.48V8.67981Z" fill="#75C0C9"/>
<path d="M181.9 13.2399H170.34V94.3798H181.9V13.2399Z" fill="#75C0C9"/>
<path d="M170.34 18.7799H158.78V99.9198H170.34V18.7799Z" fill="#75C0C9"/>
<path d="M158.76 24.3998H147.2V105.54H158.76V24.3998Z" fill="#75C0C9"/>
<path d="M147.22 29.9598H135.66V111.1H147.22V29.9598Z" fill="#75C0C9"/>
<path d="M135.64 35.3798H124.08V116.52H135.64V35.3798Z" fill="#75C0C9"/>
<path d="M391.18 8.67981H379.62V89.8199H391.18V8.67981Z" fill="#75C0C9"/>
<path d="M402.75 13.3099H391.19V94.4498H402.75V13.3099Z" fill="#75C0C9"/>
<path d="M414.31 18.84H402.75V99.9799H414.31V18.84Z" fill="#75C0C9"/>
<path d="M425.87 24.4298H414.31V105.57H425.87V24.4298Z" fill="#75C0C9"/>
<path d="M437.46 29.9799H425.9V111.12H437.46V29.9799Z" fill="#75C0C9"/>
<path d="M449.01 35.5299H437.45V116.67H449.01V35.5299Z" fill="#75C0C9"/>
<path d="M229.84 106.2H197.01V134.24H229.84V106.2Z" fill="white"/>
<path d="M362.65 106.67H329.82V134.71H362.65V106.67Z" fill="#F8F8F8"/>
<path d="M235.44 106.2H229.84V134.24H235.44V106.2Z" fill="black"/>
<path d="M229.84 139.84V134.24H197.01V139.84H229.84Z" fill="black"/>
<path d="M197.01 100.6V106.2H229.84V100.6H197.01Z" fill="black"/>
<path d="M191.41 134.25H197.01V106.21H191.41V134.25Z" fill="black"/>
<path d="M317.88 106.67H285.05V134.71H317.88V106.67Z" fill="white"/>
<path d="M323.48 106.67H317.88V134.71H323.48V106.67Z" fill="black"/>
<path d="M317.89 140.31V134.71H285.06V140.31H317.89Z" fill="black"/>
<path d="M285.06 101.07V106.67H317.89V101.07H285.06Z" fill="black"/>
<path d="M279.45 134.71H285.05V106.67H279.45V134.71Z" fill="black"/>
<path d="M368.25 106.67H362.65V134.71H368.25V106.67Z" fill="black"/>
<path d="M362.65 140.31V134.71H329.82V140.31H362.65Z" fill="black"/>
<path d="M329.82 101.07V106.67H362.65V101.07H329.82Z" fill="black"/>
<path d="M324.23 134.71H329.83V106.87H324.23V134.71Z" fill="black"/>
<path d="M181.9 88.8398V94.4398L391.18 94.4398V88.8398L181.9 88.8398Z" fill="black"/>
<path d="M170.34 94.3199V99.92H181.9V94.3199H170.34Z" fill="black"/>
<path d="M158.78 99.9099V105.51H170.34V99.9099H158.78Z" fill="black"/>
<path d="M147.21 105.44V111.04H158.77V105.44H147.21Z" fill="black"/>
<path d="M135.65 111.04V116.64H147.21V111.04H135.65Z" fill="black"/>
<path d="M124.08 116.51V122.11H135.64V116.51H124.08Z" fill="black"/>
<path d="M391.19 94.3499V99.9498H402.75V94.3499H391.19Z" fill="black"/>
<path d="M402.75 99.9399V105.54H414.31V99.9399H402.75Z" fill="black"/>
<path d="M414.32 105.48V111.08H425.88V105.48H414.32Z" fill="black"/>
<path d="M425.88 111.07V116.67H437.44V111.07H425.88Z" fill="black"/>
<path d="M437.44 116.54V122.14H449V116.54H437.44Z" fill="black"/>
<path d="M193.47 2.16992V7.7699L379.62 7.7699V2.16992L193.47 2.16992Z" fill="black"/>
<path d="M181.9 7.63989V13.2399H193.46V7.63989L181.9 7.63989Z" fill="black"/>
<path d="M170.34 13.2399V18.84H181.9V13.2399H170.34Z" fill="black"/>
<path d="M158.77 18.7698V24.3698H170.33V18.7698H158.77Z" fill="black"/>
<path d="M147.21 24.3597V29.9598H158.77V24.3597H147.21Z" fill="black"/>
<path d="M135.65 29.8398V35.4398H147.21V29.8398H135.65Z" fill="black"/>
<path d="M124.08 35.4298V41.0299H135.64V35.4298H124.08Z" fill="black"/>
<path d="M391.19 13.2698V18.8698H402.75V13.2698H391.19Z" fill="black"/>
<path d="M402.75 18.77V24.37H414.31V18.77H402.75Z" fill="black"/>
<path d="M414.32 24.3699V29.9698H425.88V24.3699H414.32Z" fill="black"/>
<path d="M425.88 29.8699V35.4698H437.44V29.8699H425.88Z" fill="black"/>
<path d="M437.45 35.4697V41.0697H449.01V35.4697H437.45Z" fill="black"/>
<path d="M379.62 7.66992V13.2699H391.18V7.66992L379.62 7.66992Z" fill="black"/>
<path d="M118.48 116.52H124.08L124.08 41.0399H118.48L118.48 116.52Z" fill="black"/>
<path d="M449.01 116.52H454.61V41.0399H449.01V116.52Z" fill="black"/>
<path d="M187.51 13.2399H181.91V88.85H187.51V13.2399Z" fill="white"/>
<path d="M175.94 18.84H170.34V94.3798H175.94V18.84Z" fill="white"/>
<path d="M164.38 24.37H158.78V99.9098H164.38V24.37Z" fill="white"/>
<path d="M152.81 29.9698H147.21V105.51H152.81V29.9698Z" fill="white"/>
<path d="M141.25 35.4398H135.65V110.98H141.25V35.4398Z" fill="white"/>
<path d="M129.68 41.0299H124.08V116.54H129.68V41.0299Z" fill="white"/>
<path d="M385.61 88.8798H391.21V13.2699H385.61V88.8798Z" fill="white"/>
<path d="M397.15 94.4098H402.75V18.87H397.15V94.4098Z" fill="white"/>
<path d="M408.72 99.9098H414.32V24.37H408.72V99.9098Z" fill="white"/>
<path d="M420.3 105.51H425.9V29.9698H420.3V105.51Z" fill="white"/>
<path d="M431.87 111.01H437.47V35.4698H431.87V111.01Z" fill="white"/>
<path d="M443.41 116.57H449.01V41.0597H443.41V116.57Z" fill="white"/>
<path d="M193.47 22.4998V28.0997L379.72 28.0997V22.4998L193.47 22.4998Z" fill="#75C0C9"/>
<path d="M193.47 57.3799V62.9799L379.72 62.9799V57.3799L193.47 57.3799Z" fill="#75C0C9"/>
<path d="M181.92 77.71V83.3099L391.2 83.3099V77.71L181.92 77.71Z" fill="black"/>
<path d="M170.36 83.22V88.8199H181.92V83.22H170.36Z" fill="black"/>
<path d="M158.79 88.8098V94.4098H170.35V88.8098H158.79Z" fill="black"/>
<path d="M147.23 94.3497V99.9498H158.79V94.3497H147.23Z" fill="black"/>
<path d="M135.66 99.9399V105.54H147.22V99.9399H135.66Z" fill="black"/>
<path d="M123.92 105.52V111.12H135.66V105.52H123.92Z" fill="black"/>
<path d="M391.21 83.2499V88.85H402.77V83.2499H391.21Z" fill="black"/>
<path d="M402.77 88.8499V94.4498H414.33V88.8499H402.77Z" fill="black"/>
<path d="M414.34 94.3798V99.9799H425.9V94.3798H414.34Z" fill="black"/>
<path d="M425.9 99.98V105.58H437.46V99.98H425.9Z" fill="black"/>
<path d="M437.46 105.44V111.04H450.69V105.44H437.46Z" fill="black"/>
<path d="M181.91 83.3099V89.8199L391.19 89.8199V83.3099L181.91 83.3099Z" fill="#75C0C9"/>
<path d="M391.2 88.8397V94.4398H402.76V88.8397H391.2Z" fill="#75C0C9"/>
<path d="M402.77 94.45V100.01H414.33V94.45H402.77Z" fill="#75C0C9"/>
<path d="M414.31 100.98V105.57H425.87V100.98H414.31Z" fill="#75C0C9"/>
<path d="M414.34 100.01V105.57H425.9V100.01H414.34Z" fill="#75C0C9"/>
<path d="M425.9 105.58V111.15H437.46V105.58H425.9Z" fill="#75C0C9"/>
<path d="M437.45 111.15V116.64H449.01V111.15H437.45Z" fill="#75C0C9"/>
<path d="M170.33 88.85V94.39H181.89V88.85H170.33Z" fill="#75C0C9"/>
<path d="M158.77 94.3198V99.9598H170.33V94.3198H158.77Z" fill="#75C0C9"/>
<path d="M147.2 99.9598V105.52H158.76V99.9598H147.2Z" fill="#75C0C9"/>
<path d="M135.64 105.55V111.1H147.2V105.55H135.64Z" fill="#75C0C9"/>
<path d="M124.09 111.09V116.58H135.65V111.09H124.09Z" fill="#75C0C9"/>
<path d="M129.12 157.59V163.19L444.35 163.19V157.59L129.12 157.59Z" fill="black"/>
<path d="M128.98 170.37V175.97L444.35 175.97V170.37L128.98 170.37Z" fill="black"/>
<path d="M124.08 175.97H129.68V157.6H124.08V175.97Z" fill="black"/>
<path d="M135.64 157.6H141.24V115.87H135.64V157.6Z" fill="black"/>
<path d="M431.87 158.38H437.47V116.65H431.87V158.38Z" fill="black"/>
<path d="M142.73 256.04H148.33V175.51H142.73V256.04Z" fill="black"/>
<path d="M148.34 256.04V261.64H426.24V256.04H148.34Z" fill="black"/>
<path d="M444.34 175.97H449.94V157.6H444.34V175.97Z" fill="black"/>
<path d="M425.13 256.04H430.73V175.97H425.13V256.04Z" fill="black"/>
<path d="M263.11 189.45H207.71V256.04H263.11V189.45Z" fill="#75C0C9"/>
<path d="M251.82 200.79H218.99V228.83H251.82V200.79Z" fill="#F8F8F8"/>
<path d="M257.42 200.79H251.82V228.83H257.42V200.79Z" fill="black"/>
<path d="M251.82 234.44V228.84H218.99V234.44H251.82Z" fill="black"/>
<path d="M218.99 195.19V200.79H251.82V195.19H218.99Z" fill="black"/>
<path d="M213.39 228.84H218.99V200.8H213.39V228.84Z" fill="black"/>
<path d="M263.17 235.87H257.57V240.65H263.17V235.87Z" fill="#F8F8F8"/>
<path d="M263.17 231.09H257.57V235.87H263.17V231.09Z" fill="black"/>
<path d="M257.58 235.87H251.98V240.65H257.58V235.87Z" fill="black"/>
<path d="M263.17 240.65H257.57V245.43H263.17V240.65Z" fill="black"/>
<path d="M268.77 189.45H263.17V256.04H268.77V189.45Z" fill="black"/>
<path d="M207.71 189.45H202.11V256.04H207.71V189.45Z" fill="black"/>
<path d="M263.11 189.45V183.85H207.71V189.45H263.11Z" fill="black"/>
<path d="M148.33 175.5V181.1L425.14 181.1V175.5L148.33 175.5Z" fill="#AAA6BC"/>
<path d="M191.41 256.04H197.01V181.1H191.41V256.04Z" fill="#75C0C9"/>
<path d="M273.86 256.04H279.46V181.1H273.86V256.04Z" fill="#75C0C9"/>
<path d="M154.07 244.9V256.04H191.84V244.9H154.07Z" fill="#75C0C9"/>
<path d="M278.9 244.9V256.04H425.14V244.9H278.9Z" fill="#75C0C9"/>
<path d="M362.65 195.04H329.82V223.08H362.65V195.04Z" fill="#F8F8F8"/>
<path d="M317.88 195.04H285.05V223.08H317.88V195.04Z" fill="#F8F8F8"/>
<path d="M323.48 195.04H317.88V223.08H323.48V195.04Z" fill="black"/>
<path d="M317.88 228.68V223.08H285.05V228.68H317.88Z" fill="black"/>
<path d="M285.05 189.44V195.04H317.88V189.44H285.05Z" fill="black"/>
<path d="M279.45 223.09H285.05V195.05H279.45V223.09Z" fill="black"/>
<path d="M368.25 195.04H362.65V223.08H368.25V195.04Z" fill="black"/>
<path d="M362.65 228.69V223.09H329.82V228.69H362.65Z" fill="black"/>
<path d="M329.82 189.44V195.04H362.65V189.44H329.82Z" fill="black"/>
<path d="M324.23 223.08H329.83V195.24H324.23V223.08Z" fill="black"/>
<path d="M290.52 218.41H285.05V223.08H290.52V218.41Z" fill="#AAA6BC"/>
<path d="M296 213.74H290.53V218.41H296V213.74Z" fill="#AAA6BC"/>
<path d="M301.47 209.06H296V213.73H301.47V209.06Z" fill="#AAA6BC"/>
<path d="M306.94 204.39H301.47V209.06H306.94V204.39Z" fill="#AAA6BC"/>
<path d="M312.41 199.72H306.94V204.39H312.41V199.72Z" fill="#AAA6BC"/>
<path d="M317.88 195.04H312.41V199.71H317.88V195.04Z" fill="#AAA6BC"/>
<path d="M301.47 218.41H296V223.08H301.47V218.41Z" fill="#75C0C9"/>
<path d="M306.94 213.74H301.47V218.41H306.94V213.74Z" fill="#75C0C9"/>
<path d="M312.41 209.06H306.94V213.73H312.41V209.06Z" fill="#75C0C9"/>
<path d="M317.88 204.39H312.41V209.06H317.88V204.39Z" fill="#75C0C9"/>
<path d="M306.94 218.41H301.47V223.08H306.94V218.41Z" fill="#AAA6BC"/>
<path d="M312.41 213.74H306.94V218.41H312.41V213.74Z" fill="#AAA6BC"/>
<path d="M317.88 209.06H312.41V213.73H317.88V209.06Z" fill="#AAA6BC"/>
<path d="M317.88 218.41H312.41V223.08H317.88V218.41Z" fill="#75C0C9"/>
<path d="M312.41 218.41H306.94V223.08H312.41V218.41Z" fill="#75C0C9"/>
<path d="M317.88 213.74H312.41V218.41H317.88V213.74Z" fill="#75C0C9"/>
<path d="M335.29 218.41H329.82V223.08H335.29V218.41Z" fill="#AAA6BC"/>
<path d="M340.76 213.74H335.29V218.41H340.76V213.74Z" fill="#AAA6BC"/>
<path d="M346.23 209.06H340.76V213.73H346.23V209.06Z" fill="#AAA6BC"/>
<path d="M351.7 204.39H346.23V209.06H351.7V204.39Z" fill="#AAA6BC"/>
<path d="M357.18 199.72H351.71V204.39H357.18V199.72Z" fill="#AAA6BC"/>
<path d="M362.65 195.04H357.18V199.71H362.65V195.04Z" fill="#AAA6BC"/>
<path d="M346.23 218.41H340.76V223.08H346.23V218.41Z" fill="#75C0C9"/>
<path d="M351.7 213.74H346.23V218.41H351.7V213.74Z" fill="#75C0C9"/>
<path d="M357.18 209.06H351.71V213.73H357.18V209.06Z" fill="#75C0C9"/>
<path d="M362.65 204.39H357.18V209.06H362.65V204.39Z" fill="#75C0C9"/>
<path d="M351.7 218.41H346.23V223.08H351.7V218.41Z" fill="#AAA6BC"/>
<path d="M357.18 213.74H351.71V218.41H357.18V213.74Z" fill="#AAA6BC"/>
<path d="M362.65 209.06H357.18V213.73H362.65V209.06Z" fill="#AAA6BC"/>
<path d="M362.65 218.41H357.18V223.08H362.65V218.41Z" fill="#75C0C9"/>
<path d="M357.18 218.41H351.71V223.08H357.18V218.41Z" fill="#75C0C9"/>
<path d="M362.65 213.74H357.18V218.41H362.65V213.74Z" fill="#75C0C9"/>
<path d="M290.52 130.04H285.05V134.71H290.52V130.04Z" fill="#AAA6BC"/>
<path d="M296 125.36H290.53V130.03H296V125.36Z" fill="#AAA6BC"/>
<path d="M301.47 120.69H296V125.36H301.47V120.69Z" fill="#AAA6BC"/>
<path d="M306.94 116.02H301.47V120.69H306.94V116.02Z" fill="#AAA6BC"/>
<path d="M312.41 111.34H306.94V116.01H312.41V111.34Z" fill="#AAA6BC"/>
<path d="M317.88 106.67H312.41V111.34H317.88V106.67Z" fill="#AAA6BC"/>
<path d="M301.47 130.04H296V134.71H301.47V130.04Z" fill="#75C0C9"/>
<path d="M306.94 125.36H301.47V130.03H306.94V125.36Z" fill="#75C0C9"/>
<path d="M312.41 120.69H306.94V125.36H312.41V120.69Z" fill="#75C0C9"/>
<path d="M317.88 116.02H312.41V120.69H317.88V116.02Z" fill="#75C0C9"/>
<path d="M306.94 130.04H301.47V134.71H306.94V130.04Z" fill="#AAA6BC"/>
<path d="M312.41 125.36H306.94V130.03H312.41V125.36Z" fill="#AAA6BC"/>
<path d="M317.88 120.69H312.41V125.36H317.88V120.69Z" fill="#AAA6BC"/>
<path d="M317.88 130.04H312.41V134.71H317.88V130.04Z" fill="#75C0C9"/>
<path d="M312.41 130.04H306.94V134.71H312.41V130.04Z" fill="#75C0C9"/>
<path d="M317.88 125.36H312.41V130.03H317.88V125.36Z" fill="#75C0C9"/>
<path d="M335.29 130.04H329.82V134.71H335.29V130.04Z" fill="#AAA6BC"/>
<path d="M340.76 125.36H335.29V130.03H340.76V125.36Z" fill="#AAA6BC"/>
<path d="M346.23 120.69H340.76V125.36H346.23V120.69Z" fill="#AAA6BC"/>
<path d="M351.7 116.02H346.23V120.69H351.7V116.02Z" fill="#AAA6BC"/>
<path d="M357.18 111.34H351.71V116.01H357.18V111.34Z" fill="#AAA6BC"/>
<path d="M362.65 106.67H357.18V111.34H362.65V106.67Z" fill="#AAA6BC"/>
<path d="M346.23 130.04H340.76V134.71H346.23V130.04Z" fill="#75C0C9"/>
<path d="M351.7 125.36H346.23V130.03H351.7V125.36Z" fill="#75C0C9"/>
<path d="M357.18 120.69H351.71V125.36H357.18V120.69Z" fill="#75C0C9"/>
<path d="M362.65 116.02H357.18V120.69H362.65V116.02Z" fill="#75C0C9"/>
<path d="M351.7 130.04H346.23V134.71H351.7V130.04Z" fill="#AAA6BC"/>
<path d="M357.18 125.36H351.71V130.03H357.18V125.36Z" fill="#AAA6BC"/>
<path d="M362.65 120.69H357.18V125.36H362.65V120.69Z" fill="#AAA6BC"/>
<path d="M362.65 130.04H357.18V134.71H362.65V130.04Z" fill="#75C0C9"/>
<path d="M357.18 130.04H351.71V134.71H357.18V130.04Z" fill="#75C0C9"/>
<path d="M362.65 125.36H357.18V130.03H362.65V125.36Z" fill="#75C0C9"/>
<path d="M202.48 129.57H197.01V134.24H202.48V129.57Z" fill="#AAA6BC"/>
<path d="M207.96 124.9H202.49V129.57H207.96V124.9Z" fill="#AAA6BC"/>
<path d="M213.43 120.22H207.96V124.89H213.43V120.22Z" fill="#AAA6BC"/>
<path d="M218.9 115.55H213.43V120.22H218.9V115.55Z" fill="#AAA6BC"/>
<path d="M224.37 110.88H218.9V115.55H224.37V110.88Z" fill="#AAA6BC"/>
<path d="M229.84 106.2H224.37V110.87H229.84V106.2Z" fill="#AAA6BC"/>
<path d="M213.43 129.57H207.96V134.24H213.43V129.57Z" fill="#75C0C9"/>
<path d="M218.9 124.9H213.43V129.57H218.9V124.9Z" fill="#75C0C9"/>
<path d="M224.37 120.22H218.9V124.89H224.37V120.22Z" fill="#75C0C9"/>
<path d="M229.84 115.55H224.37V120.22H229.84V115.55Z" fill="#75C0C9"/>
<path d="M218.9 129.57H213.43V134.24H218.9V129.57Z" fill="#AAA6BC"/>
<path d="M224.37 124.9H218.9V129.57H224.37V124.9Z" fill="#AAA6BC"/>
<path d="M229.84 120.22H224.37V124.89H229.84V120.22Z" fill="#AAA6BC"/>
<path d="M229.84 129.57H224.37V134.24H229.84V129.57Z" fill="#75C0C9"/>
<path d="M224.37 129.57H218.9V134.24H224.37V129.57Z" fill="#75C0C9"/>
<path d="M229.84 124.9H224.37V129.57H229.84V124.9Z" fill="#75C0C9"/>
<path d="M279.46 228.68V236.86H425.14V228.68H279.46Z" fill="#AAA6BC"/>
<path d="M285.06 223.08H279.46V228.68H285.06V223.08Z" fill="#75C0C9"/>
<path d="M279.46 236.85V242.45H413.37V236.85H279.46Z" fill="#AAA6BC"/>
<path d="M329.82 223.08H317.88V228.68H329.82V223.08Z" fill="#75C0C9"/>
<path d="M368.25 223.08H362.65V228.68H368.25V223.08Z" fill="#75C0C9"/>
<path d="M368.24 206.73V212.33H425.13V206.73H368.24Z" fill="#AAA6BC"/>
<path d="M148.33 206.72V212.32H191.42V206.72H148.33Z" fill="#AAA6BC"/>
<path d="M158.79 145.15V152L414.31 152V145.15L158.79 145.15Z" fill="#AAA6BC"/>
<path d="M158.76 139.55V145.15L414.31 145.15V139.55L158.76 139.55Z" fill="#75C0C9"/>
<path d="M141.06 152V157.6L431.67 157.6V152L141.06 152Z" fill="#AAA6BC"/>
<path d="M235.43 119.31V124.91H279.4V119.31H235.43Z" fill="#AAA6BC"/>
<path d="M181.92 94.4199V100.02L391.19 100.02V94.4199L181.92 94.4199Z" fill="#AAA6BC"/>
<path d="M170.33 99.9398V105.54H181.9V99.9398H170.33Z" fill="#AAA6BC"/>
<rect x="5" y="194" width="76" height="43" fill="#F8F8F8"/>
<path d="M158.77 105.52V111.12H170.34V105.52H158.77Z" fill="#AAA6BC"/>
<path d="M147.22 111.04V116.64H158.79V111.04H147.22Z" fill="#AAA6BC"/>
<path d="M391.2 99.95V105.55H402.77V99.95H391.2Z" fill="#AAA6BC"/>
<path d="M402.75 105.52V111.12H414.32V105.52H402.75Z" fill="#AAA6BC"/>
<path d="M414.3 111.04V116.64H425.87V111.04H414.3Z" fill="#AAA6BC"/>
<path d="M78.0698 194.99H5.87988V200.59H78.0698V194.99Z" fill="#AAA6BC"/>
<path d="M83.3899 233.6H78.0698V255.7H83.3899V233.6Z" fill="#AAA6BC"/>
<path d="M78.0699 239.01H72.75V255.7H78.0699V239.01Z" fill="#AAA6BC"/>
<path d="M72.5 183.83V178.26H61.3601V183.83H72.5Z" fill="#AAA6BC"/>
<path d="M22.5303 183.83V178.26H11.3904V183.83H22.5303Z" fill="#AAA6BC"/>
<path d="M83.3799 178.26V172.69H5.87988V178.26H83.3799Z" fill="black"/>
<path d="M61.3804 183.83V178.26H22.5403V183.83H61.3804Z" fill="black"/>
<path d="M88.96 183.84V178.27H72.51V183.84H88.96Z" fill="black"/>
<path d="M83.39 255.7H88.96L88.96 183.84H83.39L83.39 255.7Z" fill="black"/>
<path d="M78.0101 233.87H83.5801V194.98H78.0101V233.87Z" fill="black"/>
<path d="M83.3799 261.27V255.7H72.51V261.27H83.3799Z" fill="black"/>
<path d="M67.1801 255.87H72.75V239.18H67.1801V255.87Z" fill="black"/>
<path d="M78.0698 239.17V233.6H5.87988V239.17H78.0698Z" fill="black"/>
<path d="M0.309937 233.59H5.87988L5.87988 194.98H0.309937L0.309937 233.59Z" fill="black"/>
<path d="M78.1001 194.98V189.41H5.91016V194.98H78.1001Z" fill="black"/>
<path d="M22.5298 189.41V183.84H11.47V189.41H22.5298Z" fill="black"/>
<path d="M72.4302 189.41V183.84H61.45V189.41H72.4302Z" fill="black"/>
<path d="M5.90027 189.41H11.4702L11.4702 178.26H5.90027L5.90027 189.41Z" fill="black"/>
<path d="M13.3601 220.98H18.9302V209.84H13.3601L13.3601 220.98Z" fill="#75C0C9"/>
<path d="M18.9199 215.42V220.99H24.49V215.42H18.9199Z" fill="#75C0C9"/>
<path d="M34.8199 209.84H29.25V220.98H34.8199V209.84Z" fill="#75C0C9"/>
<path d="M50.2002 220.98V215.41H39.0601V220.98H50.2002Z" fill="#75C0C9"/>
<path d="M65.1702 209.84H59.6001V220.98H65.1702V209.84Z" fill="#75C0C9"/>
<path d="M59.6001 215.41V209.84H54.0303V215.41H59.6001Z" fill="#75C0C9"/>
<path d="M76.5 220.98V215.41H70.6101V220.98H76.5Z" fill="#75C0C9"/>
</svg>
