<svg id="Layer_1" data-name="Layer 1" xmlns="http://www.w3.org/2000/svg" viewBox="0 0 454.3 259.46"><defs><style>.cls-1{fill:#f8f8f8;}.cls-2{fill:#aaa6bc;}.cls-3{fill:#fff;}.cls-4{fill:#75c0c9;}</style></defs><rect class="cls-1" x="142.43" y="165.82" width="288" height="88.04"/><rect class="cls-2" x="128.81" y="155.42" width="315.23" height="12.78"/><rect class="cls-3" x="136.46" y="81.14" width="299.56" height="74.28"/><rect class="cls-2" x="193.16" width="186.15" height="81.14"/><rect class="cls-4" x="181.62" y="6.51" width="11.56" height="81.14"/><rect class="cls-4" x="170.03" y="11.07" width="11.56" height="81.14"/><rect class="cls-4" x="158.47" y="16.6" width="11.56" height="81.14"/><rect class="cls-4" x="146.9" y="22.23" width="11.56" height="81.14"/><rect class="cls-4" x="135.36" y="27.78" width="11.56" height="81.14"/><rect class="cls-4" x="123.78" y="33.2" width="11.56" height="81.14"/><rect class="cls-4" x="379.32" y="6.51" width="11.56" height="81.14"/><rect class="cls-4" x="390.88" y="11.13" width="11.56" height="81.14"/><rect class="cls-4" x="402.45" y="16.66" width="11.56" height="81.14"/><rect class="cls-4" x="414" y="22.26" width="11.56" height="81.14"/><rect class="cls-4" x="425.59" y="27.8" width="11.56" height="81.14"/><rect class="cls-4" x="437.14" y="33.36" width="11.56" height="81.14"/><rect class="cls-3" x="196.71" y="104.03" width="32.83" height="28.04"/><rect class="cls-1" x="329.51" y="104.49" width="32.83" height="28.04"/><rect x="229.54" y="104.03" width="5.6" height="28.04"/><rect x="210.32" y="118.45" width="5.6" height="32.83" transform="translate(347.99 -78.26) rotate(90)"/><rect x="210.32" y="84.82" width="5.6" height="32.83" transform="translate(111.89 314.35) rotate(-90)"/><rect x="191.11" y="104.03" width="5.6" height="28.04" transform="translate(387.82 236.1) rotate(180)"/><rect class="cls-3" x="284.75" y="104.49" width="32.83" height="28.04"/><rect x="317.58" y="104.49" width="5.6" height="28.04"/><rect x="298.36" y="118.92" width="5.6" height="32.83" transform="translate(436.5 -165.83) rotate(90)"/><rect x="298.36" y="85.28" width="5.6" height="32.83" transform="translate(199.47 402.86) rotate(-90)"/><rect x="279.15" y="104.49" width="5.6" height="28.04" transform="translate(563.9 237.03) rotate(180)"/><rect x="362.34" y="104.49" width="5.6" height="28.04"/><rect x="343.13" y="118.92" width="5.6" height="32.83" transform="translate(481.26 -210.6) rotate(90)"/><rect x="343.13" y="85.28" width="5.6" height="32.83" transform="translate(244.23 447.62) rotate(-90)"/><rect x="323.92" y="104.7" width="5.6" height="27.84" transform="translate(653.43 237.23) rotate(180)"/><rect x="283.44" y="-15.17" width="5.6" height="209.28" transform="translate(196.77 375.71) rotate(-90)"/><rect x="173.02" y="89.16" width="5.6" height="11.56" transform="translate(80.87 270.76) rotate(-90)"/><rect x="161.45" y="94.76" width="5.6" height="11.56" transform="translate(63.71 264.79) rotate(-90)"/><rect x="149.89" y="100.29" width="5.6" height="11.56" transform="translate(46.62 258.76) rotate(-90)"/><rect x="138.32" y="105.88" width="5.6" height="11.56" transform="translate(29.46 252.79) rotate(-90)"/><rect x="126.76" y="111.36" width="5.6" height="11.56" transform="translate(12.42 246.7) rotate(-90)"/><rect x="393.87" y="89.19" width="5.6" height="11.56" transform="translate(301.69 491.64) rotate(-90)"/><rect x="405.43" y="94.79" width="5.6" height="11.56" transform="translate(307.66 508.8) rotate(-90)"/><rect x="417" y="100.32" width="5.6" height="11.56" transform="translate(313.69 525.9) rotate(-90)"/><rect x="428.56" y="105.92" width="5.6" height="11.56" transform="translate(319.66 543.06) rotate(-90)"/><rect x="440.12" y="111.39" width="5.6" height="11.56" transform="translate(325.75 560.09) rotate(-90)"/><rect x="283.44" y="-90.28" width="5.6" height="186.15" transform="translate(283.44 289.04) rotate(-90)"/><rect x="184.58" y="2.49" width="5.6" height="11.56" transform="translate(179.11 195.65) rotate(-90)"/><rect x="173.02" y="8.08" width="5.6" height="11.56" transform="translate(161.95 189.68) rotate(-90)"/><rect x="161.45" y="13.62" width="5.6" height="11.56" transform="translate(144.85 183.65) rotate(-90)"/><rect x="149.89" y="19.21" width="5.6" height="11.56" transform="translate(127.69 177.68) rotate(-90)"/><rect x="138.32" y="24.68" width="5.6" height="11.56" transform="translate(110.66 171.59) rotate(-90)"/><rect x="126.76" y="30.28" width="5.6" height="11.56" transform="translate(93.5 165.62) rotate(-90)"/><rect x="393.87" y="8.11" width="5.6" height="11.56" transform="translate(382.77 410.56) rotate(-90)"/><rect x="405.43" y="13.61" width="5.6" height="11.56" transform="translate(388.83 427.63) rotate(-90)"/><rect x="417" y="19.21" width="5.6" height="11.56" transform="translate(394.8 444.79) rotate(-90)"/><rect x="428.56" y="24.71" width="5.6" height="11.56" transform="translate(400.86 461.85) rotate(-90)"/><rect x="440.12" y="30.31" width="5.6" height="11.56" transform="translate(406.83 479.02) rotate(-90)"/><rect x="382.3" y="2.52" width="5.6" height="11.56" transform="translate(376.8 393.4) rotate(-90)"/><rect x="118.18" y="38.86" width="5.6" height="75.48" transform="translate(241.96 153.2) rotate(180)"/><rect x="448.7" y="38.86" width="5.6" height="75.48" transform="translate(903.01 153.2) rotate(180)"/><rect class="cls-3" x="181.6" y="11.07" width="5.6" height="75.61"/><rect class="cls-3" x="170.03" y="16.66" width="5.6" height="75.54"/><rect class="cls-3" x="158.47" y="22.2" width="5.6" height="75.54"/><rect class="cls-3" x="146.9" y="27.79" width="5.6" height="75.54"/><rect class="cls-3" x="135.34" y="33.26" width="5.6" height="75.54"/><rect class="cls-3" x="123.78" y="38.86" width="5.6" height="75.51"/><rect class="cls-3" x="385.31" y="11.1" width="5.6" height="75.61" transform="translate(776.21 97.8) rotate(-180)"/><rect class="cls-3" x="396.85" y="16.69" width="5.6" height="75.54" transform="translate(799.3 108.93) rotate(-180)"/><rect class="cls-3" x="408.42" y="22.2" width="5.6" height="75.54" transform="translate(822.43 119.93) rotate(-180)"/><rect class="cls-3" x="420" y="27.79" width="5.6" height="75.54" transform="translate(845.6 131.13) rotate(-180)"/><rect class="cls-3" x="431.57" y="33.29" width="5.6" height="75.54" transform="translate(868.73 142.13) rotate(-180)"/><rect class="cls-3" x="443.11" y="38.89" width="5.6" height="75.51" transform="translate(891.81 153.29) rotate(-180)"/><rect class="cls-4" x="283.49" y="-69.99" width="5.6" height="186.25" transform="translate(263.16 309.42) rotate(-90)"/><rect class="cls-4" x="283.49" y="-35.11" width="5.6" height="186.25" transform="translate(228.28 344.3) rotate(-90)"/><rect x="283.46" y="-26.3" width="5.6" height="209.28" transform="translate(207.92 364.6) rotate(-90)"/><rect x="173.04" y="78.06" width="5.6" height="11.56" transform="translate(91.99 259.68) rotate(-90)"/><rect x="161.47" y="83.66" width="5.6" height="11.56" transform="translate(74.83 253.71) rotate(-90)"/><rect x="149.91" y="89.19" width="5.6" height="11.56" transform="translate(57.73 247.68) rotate(-90)"/><rect x="138.34" y="94.79" width="5.6" height="11.56" transform="translate(40.57 241.71) rotate(-90)"/><rect x="126.69" y="100.27" width="5.6" height="11.74" transform="translate(23.34 235.63) rotate(-90)"/><rect x="393.88" y="78.09" width="5.6" height="11.56" transform="translate(312.81 480.56) rotate(-90)"/><rect x="405.45" y="83.69" width="5.6" height="11.56" transform="translate(318.77 497.72) rotate(-90)"/><rect x="417.01" y="89.22" width="5.6" height="11.56" transform="translate(324.81 514.82) rotate(-90)"/><rect x="428.58" y="94.82" width="5.6" height="11.56" transform="translate(330.77 531.98) rotate(-90)"/><rect x="440.97" y="99.46" width="5.6" height="13.23" transform="translate(337.7 549.84) rotate(-90)"/><rect class="cls-4" x="282.99" y="-20.25" width="6.51" height="209.28" transform="translate(201.85 370.63) rotate(-90)"/><rect class="cls-4" x="393.88" y="83.69" width="5.6" height="11.56" transform="translate(307.21 486.15) rotate(-90)"/><rect class="cls-4" x="405.46" y="89.27" width="5.56" height="11.56" transform="translate(313.19 503.3) rotate(-90)"/><rect class="cls-4" x="417.5" y="95.32" width="4.59" height="11.56" transform="translate(318.69 520.89) rotate(-90)"/><rect class="cls-4" x="417.03" y="94.83" width="5.56" height="11.56" transform="translate(319.2 520.42) rotate(-90)"/><rect class="cls-4" x="428.59" y="100.4" width="5.57" height="11.56" transform="translate(325.19 537.56) rotate(-90)"/><rect class="cls-4" x="440.18" y="105.94" width="5.49" height="11.56" transform="translate(331.21 554.64) rotate(-90)"/><rect class="cls-4" x="173.04" y="83.66" width="5.54" height="11.56" transform="translate(86.36 265.25) rotate(-90)"/><rect class="cls-4" x="161.42" y="89.18" width="5.64" height="11.56" transform="translate(69.28 259.21) rotate(-90)"/><rect class="cls-4" x="149.9" y="94.78" width="5.56" height="11.56" transform="translate(52.12 253.24) rotate(-90)"/><rect class="cls-4" x="138.34" y="100.36" width="5.55" height="11.56" transform="translate(34.97 247.26) rotate(-90)"/><rect class="cls-4" x="126.82" y="105.88" width="5.49" height="11.56" transform="translate(17.9 241.23) rotate(-90)"/><rect x="283.63" y="0.61" width="5.6" height="315.23" transform="translate(128.21 444.65) rotate(-90)"/><rect x="283.56" y="13.31" width="5.6" height="315.37" transform="translate(115.36 457.35) rotate(-90)"/><rect x="123.78" y="155.42" width="5.6" height="18.37" transform="translate(253.15 329.22) rotate(180)"/><rect x="135.34" y="113.7" width="5.6" height="41.73" transform="translate(276.28 269.12) rotate(180)"/><rect x="431.57" y="114.47" width="5.6" height="41.73" transform="translate(868.73 270.67) rotate(180)"/><rect x="142.43" y="173.33" width="5.6" height="80.53" transform="translate(290.45 427.19) rotate(180)"/><rect x="284.18" y="117.71" width="5.6" height="277.9" transform="translate(30.31 543.64) rotate(-90)"/><rect x="444.04" y="155.42" width="5.6" height="18.37" transform="translate(893.68 329.22) rotate(180)"/><rect x="424.83" y="173.8" width="5.6" height="80.07" transform="translate(855.25 427.66) rotate(180)"/><rect class="cls-4" x="207.4" y="187.27" width="55.4" height="66.59"/><rect class="cls-1" x="218.68" y="198.62" width="32.83" height="28.04"/><rect x="251.51" y="198.62" width="5.6" height="28.04"/><rect x="232.3" y="213.04" width="5.6" height="32.83" transform="translate(464.56 -5.64) rotate(90)"/><rect x="232.3" y="179.41" width="5.6" height="32.83" transform="translate(39.28 430.92) rotate(-90)"/><rect x="213.09" y="198.62" width="5.6" height="28.04" transform="translate(431.77 425.28) rotate(180)"/><rect class="cls-1" x="257.27" y="233.7" width="5.6" height="4.78"/><rect x="257.27" y="228.92" width="5.6" height="4.78"/><rect x="251.67" y="233.7" width="5.6" height="4.78"/><rect x="257.27" y="238.47" width="5.6" height="4.78"/><rect x="262.86" y="187.27" width="5.6" height="66.59"/><rect x="201.8" y="187.27" width="5.6" height="66.59"/><rect x="232.3" y="156.78" width="5.6" height="55.4" transform="translate(419.57 -50.62) rotate(90)"/><rect class="cls-2" x="283.63" y="37.72" width="5.6" height="276.81" transform="translate(110.3 462.55) rotate(-90)"/><rect class="cls-4" x="191.11" y="178.93" width="5.6" height="74.94" transform="translate(387.82 432.79) rotate(180)"/><rect class="cls-4" x="273.56" y="178.93" width="5.6" height="74.94" transform="translate(552.71 432.79) rotate(180)"/><rect class="cls-4" x="167.07" y="229.4" width="11.14" height="37.77" transform="translate(-75.64 420.94) rotate(-90)"/><rect class="cls-4" x="346.14" y="175.17" width="11.14" height="146.24" transform="translate(103.42 600) rotate(-90)"/><rect class="cls-1" x="329.51" y="192.87" width="32.83" height="28.04"/><rect class="cls-1" x="284.75" y="192.87" width="32.83" height="28.04"/><rect x="317.58" y="192.87" width="5.6" height="28.04"/><rect x="298.36" y="207.29" width="5.6" height="32.83" transform="translate(524.87 -77.45) rotate(90)"/><rect x="298.36" y="173.66" width="5.6" height="32.83" transform="translate(111.09 491.23) rotate(-90)"/><rect x="279.15" y="192.87" width="5.6" height="28.04" transform="translate(563.9 413.78) rotate(180)"/><rect x="362.34" y="192.87" width="5.6" height="28.04"/><rect x="343.13" y="207.29" width="5.6" height="32.83" transform="translate(569.64 -122.22) rotate(90)"/><rect x="343.13" y="173.66" width="5.6" height="32.83" transform="translate(155.86 536) rotate(-90)"/><rect x="323.92" y="193.07" width="5.6" height="27.84" transform="translate(653.43 413.98) rotate(180)"/><rect class="cls-2" x="284.75" y="216.24" width="5.47" height="4.67"/><rect class="cls-2" x="290.22" y="211.56" width="5.47" height="4.67"/><rect class="cls-2" x="295.69" y="206.89" width="5.47" height="4.67"/><rect class="cls-2" x="301.16" y="202.22" width="5.47" height="4.67"/><rect class="cls-2" x="306.63" y="197.54" width="5.47" height="4.67"/><rect class="cls-2" x="312.11" y="192.87" width="5.47" height="4.67"/><rect class="cls-4" x="295.69" y="216.24" width="5.47" height="4.67"/><rect class="cls-4" x="301.16" y="211.56" width="5.47" height="4.67"/><rect class="cls-4" x="306.63" y="206.89" width="5.47" height="4.67"/><rect class="cls-4" x="312.11" y="202.22" width="5.47" height="4.67"/><rect class="cls-2" x="301.16" y="216.24" width="5.47" height="4.67"/><rect class="cls-2" x="306.63" y="211.56" width="5.47" height="4.67"/><rect class="cls-2" x="312.11" y="206.89" width="5.47" height="4.67"/><rect class="cls-4" x="312.11" y="216.24" width="5.47" height="4.67"/><rect class="cls-4" x="306.63" y="216.24" width="5.47" height="4.67"/><rect class="cls-4" x="312.11" y="211.56" width="5.47" height="4.67"/><rect class="cls-2" x="329.51" y="216.24" width="5.47" height="4.67"/><rect class="cls-2" x="334.99" y="211.56" width="5.47" height="4.67"/><rect class="cls-2" x="340.46" y="206.89" width="5.47" height="4.67"/><rect class="cls-2" x="345.93" y="202.22" width="5.47" height="4.67"/><rect class="cls-2" x="351.4" y="197.54" width="5.47" height="4.67"/><rect class="cls-2" x="356.87" y="192.87" width="5.47" height="4.67"/><rect class="cls-4" x="340.46" y="216.24" width="5.47" height="4.67"/><rect class="cls-4" x="345.93" y="211.56" width="5.47" height="4.67"/><rect class="cls-4" x="351.4" y="206.89" width="5.47" height="4.67"/><rect class="cls-4" x="356.87" y="202.22" width="5.47" height="4.67"/><rect class="cls-2" x="345.93" y="216.24" width="5.47" height="4.67"/><rect class="cls-2" x="351.4" y="211.56" width="5.47" height="4.67"/><rect class="cls-2" x="356.87" y="206.89" width="5.47" height="4.67"/><rect class="cls-4" x="356.87" y="216.24" width="5.47" height="4.67"/><rect class="cls-4" x="351.4" y="216.24" width="5.47" height="4.67"/><rect class="cls-4" x="356.87" y="211.56" width="5.47" height="4.67"/><rect class="cls-2" x="284.75" y="127.86" width="5.47" height="4.67"/><rect class="cls-2" x="290.22" y="123.19" width="5.47" height="4.67"/><rect class="cls-2" x="295.69" y="118.51" width="5.47" height="4.67"/><rect class="cls-2" x="301.16" y="113.84" width="5.47" height="4.67"/><rect class="cls-2" x="306.63" y="109.17" width="5.47" height="4.67"/><rect class="cls-2" x="312.11" y="104.49" width="5.47" height="4.67"/><rect class="cls-4" x="295.69" y="127.86" width="5.47" height="4.67"/><rect class="cls-4" x="301.16" y="123.19" width="5.47" height="4.67"/><rect class="cls-4" x="306.63" y="118.51" width="5.47" height="4.67"/><rect class="cls-4" x="312.11" y="113.84" width="5.47" height="4.67"/><rect class="cls-2" x="301.16" y="127.86" width="5.47" height="4.67"/><rect class="cls-2" x="306.63" y="123.19" width="5.47" height="4.67"/><rect class="cls-2" x="312.11" y="118.51" width="5.47" height="4.67"/><rect class="cls-4" x="312.11" y="127.86" width="5.47" height="4.67"/><rect class="cls-4" x="306.63" y="127.86" width="5.47" height="4.67"/><rect class="cls-4" x="312.11" y="123.19" width="5.47" height="4.67"/><rect class="cls-2" x="329.51" y="127.86" width="5.47" height="4.67"/><rect class="cls-2" x="334.99" y="123.19" width="5.47" height="4.67"/><rect class="cls-2" x="340.46" y="118.51" width="5.47" height="4.67"/><rect class="cls-2" x="345.93" y="113.84" width="5.47" height="4.67"/><rect class="cls-2" x="351.4" y="109.17" width="5.47" height="4.67"/><rect class="cls-2" x="356.87" y="104.49" width="5.47" height="4.67"/><rect class="cls-4" x="340.46" y="127.86" width="5.47" height="4.67"/><rect class="cls-4" x="345.93" y="123.19" width="5.47" height="4.67"/><rect class="cls-4" x="351.4" y="118.51" width="5.47" height="4.67"/><rect class="cls-4" x="356.87" y="113.84" width="5.47" height="4.67"/><rect class="cls-2" x="345.93" y="127.86" width="5.47" height="4.67"/><rect class="cls-2" x="351.4" y="123.19" width="5.47" height="4.67"/><rect class="cls-2" x="356.87" y="118.51" width="5.47" height="4.67"/><rect class="cls-4" x="356.87" y="127.86" width="5.47" height="4.67"/><rect class="cls-4" x="351.4" y="127.86" width="5.47" height="4.67"/><rect class="cls-4" x="356.87" y="123.19" width="5.47" height="4.67"/><rect class="cls-2" x="196.71" y="127.39" width="5.47" height="4.67"/><rect class="cls-2" x="202.18" y="122.72" width="5.47" height="4.67"/><rect class="cls-2" x="207.65" y="118.05" width="5.47" height="4.67"/><rect class="cls-2" x="213.12" y="113.37" width="5.47" height="4.67"/><rect class="cls-2" x="218.59" y="108.7" width="5.47" height="4.67"/><rect class="cls-2" x="224.06" y="104.03" width="5.47" height="4.67"/><rect class="cls-4" x="207.65" y="127.39" width="5.47" height="4.67"/><rect class="cls-4" x="213.12" y="122.72" width="5.47" height="4.67"/><rect class="cls-4" x="218.59" y="118.05" width="5.47" height="4.67"/><rect class="cls-4" x="224.06" y="113.37" width="5.47" height="4.67"/><rect class="cls-2" x="213.12" y="127.39" width="5.47" height="4.67"/><rect class="cls-2" x="218.59" y="122.72" width="5.47" height="4.67"/><rect class="cls-2" x="224.06" y="118.05" width="5.47" height="4.67"/><rect class="cls-4" x="224.06" y="127.39" width="5.47" height="4.67"/><rect class="cls-4" x="218.59" y="127.39" width="5.47" height="4.67"/><rect class="cls-4" x="224.06" y="122.72" width="5.47" height="4.67"/><rect class="cls-2" x="347.9" y="157.75" width="8.18" height="145.68" transform="translate(121.4 582.58) rotate(-90)"/><rect class="cls-4" x="279.15" y="220.91" width="5.6" height="5.6"/><rect class="cls-2" x="343.31" y="170.52" width="5.6" height="133.91" transform="translate(108.63 583.59) rotate(-90)"/><rect class="cls-4" x="317.58" y="220.91" width="11.94" height="5.6"/><rect class="cls-4" x="362.34" y="220.91" width="5.6" height="5.6"/><rect class="cls-2" x="393.59" y="178.9" width="5.6" height="56.89" transform="translate(189.03 603.73) rotate(-90)"/><rect class="cls-2" x="166.77" y="185.81" width="5.6" height="43.09" transform="translate(-37.78 376.92) rotate(-90)"/><rect class="cls-2" x="282.82" y="18.64" width="6.85" height="255.52" transform="translate(139.85 432.65) rotate(-90)"/><rect class="cls-4" x="283.44" y="12.4" width="5.6" height="255.55" transform="translate(146.06 426.41) rotate(-90)"/><rect class="cls-2" x="283.26" y="7.32" width="5.6" height="290.61" transform="translate(133.43 438.68) rotate(-90)"/><rect class="cls-2" x="254.32" y="97.95" width="5.6" height="43.97" transform="translate(137.18 377.06) rotate(-90)"/><rect class="cls-2" x="283.45" y="-9.58" width="5.6" height="209.27" transform="translate(191.2 381.3) rotate(-90)"/><rect class="cls-2" x="173.01" y="94.78" width="5.6" height="11.57" transform="translate(75.24 276.38) rotate(-90)"/><rect class="cls-2" x="161.45" y="100.36" width="5.6" height="11.57" transform="translate(58.11 270.4) rotate(-90)"/><rect class="cls-2" x="149.91" y="105.88" width="5.6" height="11.57" transform="translate(41.04 264.37) rotate(-90)"/><rect class="cls-2" x="393.88" y="94.78" width="5.6" height="11.57" transform="translate(296.11 497.24) rotate(-90)"/><rect class="cls-2" x="405.44" y="100.36" width="5.6" height="11.57" transform="translate(302.09 514.38) rotate(-90)"/><rect class="cls-2" x="416.98" y="105.88" width="5.6" height="11.57" transform="translate(308.12 531.45) rotate(-90)"/><rect class="cls-2" x="5.57" y="192.81" width="72.19" height="5.6"/><rect class="cls-2" x="77.76" y="231.42" width="5.32" height="22.1"/><rect class="cls-2" x="72.44" y="236.83" width="5.32" height="16.69"/><rect class="cls-2" x="63.85" y="173.31" width="5.57" height="11.14" transform="translate(245.51 112.25) rotate(90)"/><rect class="cls-2" x="13.87" y="173.31" width="5.57" height="11.14" transform="translate(195.53 162.22) rotate(90)"/><rect x="41.54" y="134.56" width="5.57" height="77.5" transform="translate(217.63 128.98) rotate(90)"/><rect x="38.86" y="159.46" width="5.57" height="38.84" transform="translate(220.52 137.24) rotate(90)"/><rect x="77.64" y="170.66" width="5.57" height="16.45" transform="translate(259.31 98.45) rotate(90)"/><rect x="83.08" y="181.67" width="5.57" height="71.86" transform="translate(171.72 435.19) rotate(180)"/><rect x="77.7" y="192.81" width="5.57" height="38.89" transform="translate(160.97 424.51) rotate(180)"/><rect x="74.85" y="250.88" width="5.57" height="10.87" transform="translate(333.95 178.67) rotate(90)"/><rect x="66.87" y="237" width="5.57" height="16.69" transform="translate(139.31 490.69) rotate(180)"/><rect x="38.88" y="198.11" width="5.57" height="72.19" transform="translate(275.88 192.54) rotate(90)"/><rect y="192.81" width="5.57" height="38.61" transform="translate(5.57 424.23) rotate(180)"/><rect x="38.9" y="153.93" width="5.57" height="72.19" transform="translate(231.71 148.34) rotate(90)"/><rect x="13.91" y="178.92" width="5.57" height="11.06" transform="translate(201.15 167.76) rotate(90)"/><rect x="63.85" y="178.96" width="5.57" height="10.98" transform="translate(251.09 117.82) rotate(90)"/><rect x="5.59" y="176.09" width="5.57" height="11.15" transform="translate(16.76 363.33) rotate(180)"/><rect class="cls-4" x="13.05" y="207.67" width="5.57" height="11.14" transform="translate(31.66 426.47) rotate(180)"/><rect class="cls-4" x="18.62" y="213.24" width="5.57" height="5.57" transform="translate(-194.62 237.43) rotate(-90)"/><rect class="cls-4" x="28.95" y="207.67" width="5.57" height="11.14"/><rect class="cls-4" x="41.54" y="210.45" width="5.57" height="11.14" transform="translate(260.35 171.7) rotate(90)"/><rect class="cls-4" x="59.29" y="207.67" width="5.57" height="11.14"/><rect class="cls-4" x="53.72" y="207.67" width="5.57" height="5.57" transform="translate(266.96 153.95) rotate(90)"/><rect class="cls-4" x="70.46" y="213.08" width="5.57" height="5.89" transform="translate(289.26 142.78) rotate(90)"/></svg>